<?xml version="1.0" encoding="UTF-8"?>
<svg id="_图层_2" data-name="图层 2" xmlns="http://www.w3.org/2000/svg" viewBox="0 0 40.73 41.54">
  <g id="_图层_1-2" data-name="图层 1">
    <path d="m3.8.21c1.95.51,3.39,1.62,4.13,3.18.4.85.42.95.4,2.51-.02,1.88-.3,3.13-1.06,4.77l-.48,1.05-.33-.31c-.8-.75-.93-1.71-.48-3.47.47-1.84.32-3.32-.45-4.32-.45-.59-1.81-1.31-2.67-1.41-.81-.1-.75-.39-.54,2.88.29,4.57.9,9.2,1.84,13.99,1.26,6.44,3.01,11.36,5.99,16.87l.6,1.11.57-.62c.62-.67,2.19-1.76,3.24-2.25l.66-.3v-1.18c0-1.62-.34-4.08-.82-5.95-.95-3.7-3.09-6.64-6.11-8.42-.97-.57-1.21-.8-1.54-1.46-.27-.53-.3-1.67-.05-1.67.39,0,3.01,1.41,4.01,2.17,3.93,2.96,6.01,7.29,6.57,13.72.09,1.01.17,1.85.19,1.88.02.02.54-.11,1.16-.3,7-2.12,14.61-1.76,20.17.94,1.36.66,1.73,1.06,1.89,2.05.19,1.16-.07,1.59-2.06,3.55-1.01.99-2.03,1.91-2.27,2.04-.4.22-1.29.24-12.18.28-7.91.03-11.97,0-12.44-.11-.95-.2-1.39-.63-2.46-2.38-2.01-3.3-3.74-7.02-5.04-10.8C1.93,21.53,0,9.38,0,1.39V0s1.53,0,1.53,0c.87,0,1.85.09,2.27.21m19.49,33.59c-2.73.46-6.1,1.45-7.73,2.28-1.73.88-3.33,2.3-3.33,2.95v.34h23l1.77-1.76,1.77-1.76-.92-.41c-2.07-.93-4.67-1.62-7.17-1.9-1.73-.2-5.49-.07-7.39.25" style="fill: #f8b544;"/>
  </g>
</svg>