<?xml version="1.0" encoding="UTF-8"?>
<svg id="_图层_2" data-name="图层 2" xmlns="http://www.w3.org/2000/svg" viewBox="0 0 49.92 41.78">
  <g id="_图层_1-2" data-name="图层 1">
    <path d="m17.06,11.6c.65-.16.8-.08.8.42,0,.38.67,4.34,1.06,6.32.99,4.98,2.3,9.18,3.87,12.32.89,1.79,1.42,2.5,3.37,4.58,1.37,1.45,3.42,3.72,5.94,6.55h2.34c-.34-.39-.69-.79-1.01-1.15-.98-1.12-2.95-3.3-4.37-4.84-1.43-1.55-2.59-2.86-2.59-2.92s.44-.57.98-1.15c1.32-1.4,2.79-2.41,4.3-2.95,1.06-.38,1.14-.35,2.57.97.71.65,2.17,2,3.25,2.98,1.08.99,3.42,3.13,5.21,4.77,1.35,1.24,2.96,2.72,4.67,4.28h2.48c-.32-.29-.64-.58-.94-.86-1.25-1.15-4.67-4.28-7.6-6.97-2.93-2.68-5.8-5.3-6.37-5.83-1.02-.94-1.06-.99-2.92-4.24-4.01-7-7.82-13.64-8.06-14.04-.14-.23-.21-.45-.16-.48.05-.03.37-.12.7-.2.66-.15.96-.44.96-.92,0-.16-.44-1.88-.99-3.84-.54-1.96-.99-3.61-.99-3.68s-.11-.26-.24-.43c-.44-.57-.75-.46-4.81,1.57-2.08,1.04-3.88,2.02-4.09,2.22-.52.5-.66.99-.57,2.05l.07.89-2.99,1.35C1.7,12.55.04,13.33,0,13.57c-.03.16.06.28.26.37.26.12.65.03,2.94-.69,3.06-.96,11.47-3.51,11.56-3.51.03,0,.31.42.61.93.62,1.05.78,1.14,1.69.93Zm-2.7-2.73c-.12.12-6.87,2.14-6.94,2.08-.04-.04-.02-.1.05-.12.06-.03,1.53-.69,3.25-1.48,1.72-.79,3.21-1.43,3.3-1.42.09.01.22.21.27.46.06.24.08.46.06.49Zm9.75,4.53c1.01,1.79,2.97,5.21,4.34,7.6,1.37,2.39,2.69,4.7,2.92,5.12l.43.77-.55.21c-1.71.64-3.28,1.69-4.91,3.27l-1.11,1.08-.37-.61c-1.71-2.84-3.29-7.82-4.49-14.19-.3-1.6-.88-5.36-.88-5.71,0-.28,2.42-1.12,2.64-.91.08.07.97,1.59,1.98,3.38ZM15.6,5.27l3.08-1.58c1.69-.87,3.13-1.57,3.19-1.56.06.01.41,1.17.78,2.57.37,1.4.66,2.62.64,2.71-.02.14-1.28.6-6.25,2.29-.36.12-1.41-2.61-1.43-3.73v-.7Z" style="fill: #c8c8c8;"/>
  </g>
</svg>