<?xml version="1.0" encoding="UTF-8"?>
<svg id="_图层_2" data-name="图层 2" xmlns="http://www.w3.org/2000/svg" viewBox="0 0 58.18 60.04">
  <g id="_图层_1-2" data-name="图层 1">
    <g>
      <g>
        <path d="m24.35,44.17c.71-1.34,1.41-2.67,2.12-4.01.18-.35.1-.83-.27-1.03-.35-.18-.83-.1-1.03.27l-2.12,4.01c-.18.35-.1.83.27,1.03.35.18.83.1,1.03-.27h0Z"/>
        <path d="m21.2,49.95c.54-.98,1.09-1.96,1.64-2.93.19-.34.09-.84-.27-1.03s-.82-.09-1.03.27c-.56.97-1.1,1.95-1.64,2.93-.19.34-.1.83.27,1.03s.82.1,1.03-.27h0Z"/>
        <path d="m16.04,59.66c1.18-2.26,2.36-4.52,3.56-6.77.45-.85-.84-1.61-1.3-.76-1.2,2.25-2.39,4.51-3.56,6.77-.44.86.85,1.61,1.3.76h0Z"/>
        <path d="m16,36.96c1.28-.81,2.55-1.63,3.82-2.45.33-.21.5-.68.27-1.03-.21-.33-.67-.5-1.03-.27-1.27.82-2.54,1.64-3.82,2.45-.33.21-.49.68-.27,1.03.21.33.67.49,1.03.27h0Z"/>
        <path d="m10.36,40.6c.98-.63,1.96-1.28,2.93-1.93.32-.22.5-.67.27-1.03-.21-.32-.68-.5-1.03-.27-.97.65-1.95,1.3-2.93,1.93-.33.21-.5.68-.27,1.03.21.33.67.5,1.03.27h0Z"/>
        <path d="m1.11,46.32c2.21-1.34,4.42-2.69,6.61-4.05.82-.51.07-1.81-.76-1.3-2.19,1.37-4.4,2.71-6.61,4.05-.82.5-.07,1.8.76,1.3h0Z"/>
        <path d="m20.11,40.59c1-1.06,2-2.12,3-3.18.27-.29.3-.78,0-1.06s-.77-.3-1.06,0c-1,1.06-2,2.12-3,3.18-.27.29-.3.78,0,1.06s.77.31,1.06,0h0Z"/>
        <path d="m15.69,45.3c.78-.83,1.56-1.66,2.34-2.49.27-.29.3-.78,0-1.06s-.77-.31-1.06,0c-.78.83-1.56,1.66-2.34,2.49-.27.29-.31.78,0,1.06s.77.31,1.06,0h0Z"/>
        <path d="m4.27,57.56c3.12-3.35,6.24-6.7,9.36-10.05.66-.71-.4-1.77-1.06-1.06-3.12,3.35-6.24,6.7-9.36,10.05-.66.71.4,1.77,1.06,1.06h0Z"/>
      </g>
      <path d="m56.28,19.5l-3.25,3.5c-.06.07-.13.12-.2.17l-20.28,13.25c-.42.27-.97.23-1.34-.11l-.92-.86c-.44-.41-1.13-.39-1.54.06h0c-.41.44-.39,1.13.06,1.54l2.18,2.02c.37.34.92.39,1.34.11l21.93-14.33c.07-.05.14-.11.2-.17l3.43-3.69c.41-.44.39-1.13-.06-1.54h0c-.44-.41-1.13-.39-1.54.06Z"/>
      <path d="m37.26,1.84l-3.25,3.5c-.06.07-.11.14-.16.22l-11.71,21.2c-.24.44-.15.99.21,1.33l.92.86c.44.41.47,1.1.06,1.54h0c-.41.44-1.1.47-1.54.06l-2.18-2.02c-.37-.34-.46-.89-.21-1.33l12.67-22.93c.04-.08.1-.15.16-.22l3.43-3.69c.41-.44,1.1-.47,1.54-.06h0c.44.41.47,1.1.06,1.54Z"/>
    </g>
  </g>
</svg>