<?xml version="1.0" encoding="UTF-8"?>
<svg id="_图层_2" data-name="图层 2" xmlns="http://www.w3.org/2000/svg" viewBox="0 0 20.37 32.62">
  <g id="_图层_1-2" data-name="图层 1">
    <path d="m.47.46c-.26.26-.47.71-.47,1s2.31,4.53,5.13,9.42c2.82,4.89,4.99,9.02,4.82,9.17-.17.16-1.99.59-4.05.97-4.29.8-4.88,1.14-3.68,2.12,1.32,1.08,16.53,9.48,17.17,9.48.48,0,.62-1.67.86-10.06.22-7.6.17-10.18-.18-10.52-.36-.35-1.19.33-3.53,2.86l-3.06,3.31-.6-.95c-.33-.52-2.59-4.4-5.02-8.62C5.43,4.42,3.27.75,3.05.47,2.55-.15,1.09-.16.47.46"/>
  </g>
</svg>