<?xml version="1.0" encoding="UTF-8"?>
<svg id="_图层_2" data-name="图层 2" xmlns="http://www.w3.org/2000/svg" viewBox="0 0 50 50.99">
  <g id="_图层_1-2" data-name="图层 1">
    <path d="m4.67.26c2.4.63,4.17,1.99,5.07,3.9.49,1.04.51,1.17.49,3.08-.03,2.31-.37,3.84-1.3,5.85l-.59,1.29-.41-.38c-.98-.92-1.14-2.1-.59-4.26.58-2.26.39-4.07-.55-5.3-.55-.72-2.22-1.6-3.28-1.73-.99-.12-.92-.48-.67,3.53.36,5.61,1.1,11.3,2.25,17.17,1.55,7.91,3.69,13.94,7.36,20.7l.74,1.36.7-.77c.76-.83,2.69-2.16,3.98-2.76l.8-.37v-1.45c0-1.99-.41-5.01-1-7.3-1.17-4.54-3.79-8.15-7.5-10.33-1.19-.7-1.49-.98-1.9-1.79-.33-.64-.37-2.05-.06-2.05.48,0,3.7,1.74,4.92,2.66,4.83,3.64,7.37,8.95,8.07,16.85.11,1.24.21,2.27.23,2.3.02.03.66-.14,1.43-.37,8.59-2.6,17.93-2.16,24.76,1.15,1.67.81,2.12,1.3,2.32,2.51.23,1.42-.08,1.96-2.53,4.36-1.24,1.21-2.49,2.34-2.78,2.5-.49.27-1.58.3-14.95.34-9.7.03-14.69-.01-15.27-.13-1.17-.24-1.71-.77-3.02-2.92-2.46-4.06-4.59-8.62-6.19-13.25C2.37,26.43.01,11.52,0,1.71V0s1.87.01,1.87.01c1.07,0,2.27.11,2.79.25m23.92,41.23c-3.35.56-7.48,1.78-9.49,2.8-2.13,1.07-4.09,2.82-4.09,3.63v.42h28.23l2.18-2.16,2.18-2.16-1.13-.51c-2.55-1.14-5.73-1.99-8.8-2.33-2.12-.24-6.74-.08-9.07.31"/>
  </g>
</svg>