<?xml version="1.0" encoding="UTF-8"?>
<svg id="_图层_2" data-name="图层 2" xmlns="http://www.w3.org/2000/svg" viewBox="0 0 52.21 65.07">
  <g id="_图层_1-2" data-name="图层 1">
    <g>
      <path d="m19.06.05c-.99.2-1.7,1.08-1.7,2.11,0,.86.46,1.56,1.29,1.95l.37.17h14l.37-.17c.52-.25.83-.54,1.07-1.04.18-.37.21-.51.21-.92,0-.87-.46-1.57-1.29-1.96l-.37-.17h-6.84c-3.76-.02-6.96,0-7.12.04"/>
      <path d="m40.11,17.44c-1.04.56-17.55,9.44-17.55,9.44l-.26.45c-.34.58-.45,1.22-.33,1.94.08.52.13.63.49,1.1.67.87,1.59,1.24,2.64,1.06l.52-.09s10.98-10.49,14.49-13.89"/>
      <path d="m39.87,6.99c-.94.34-1.44,1.04-1.45,2.01,0,.88.09,1.02,2.15,3.09,2.47,2.49,3.19,3.14,3.63,3.29,1.05.36,2.16-.12,2.66-1.17.11-.24.15-.43.15-.84q0-.93-2.76-3.7c-2.05-2.05-2.46-2.44-2.78-2.58-.5-.23-1.13-.27-1.6-.1" style="fill: none; stroke: #000;"/>
      <path d="m47.78,30.74c-.46,0-.95-.21-1.47-.63.02-.47.02-.95,0-1.45-.09-3.12-.85-6.01-2.32-8.84-1.8-3.47-4.93-6.62-8.36-8.44-2.09-1.11-4.41-1.87-6.69-2.22-.71-.11-1.36-.15-2.6-.17-.46,0-.8-.01-1.07-.01-.81,0-1.12.04-1.99.15-3.03.4-6.44,1.73-8.91,3.47-3.29,2.32-5.8,5.51-7.27,9.23-1.05,2.67-1.49,5.15-1.4,8.03,0,.08,0,.15,0,.23-.57.43-1.09.64-1.56.64h0c-.46,0-.89-.2-1.33-.62-.17-4.68,1.06-9.31,3.45-13.07,1.2-1.88,1.88-2.74,3.32-4.18,1.52-1.52,2.64-2.39,4.58-3.56,3.06-1.85,6.69-2.96,10.48-3.21.17-.01.41-.02.7-.02,1.13,0,2.72.07,3.35.14,3.12.37,6.15,1.35,8.74,2.84,1.67.96,3.04,1.95,4.29,3.12,1.8,1.68,2.98,3.14,4.34,5.4,1.74,2.88,2.81,6.34,3.09,10.01.06.8.08,1.64.04,2.5-.49.43-.96.64-1.43.64Z"/>
      <text transform="translate(0 58.41)" style="font-family: MicrosoftYaHeiUI, &apos;Microsoft YaHei UI&apos;; font-size: 26.11px;"><tspan x="0" y="0">0:10</tspan></text>
    </g>
  </g>
</svg>