<?xml version="1.0" encoding="UTF-8"?>
<svg id="_图层_2" data-name="图层 2" xmlns="http://www.w3.org/2000/svg" viewBox="0 0 46.18 50.98">
  <g id="_图层_1-2" data-name="图层 1">
    <g>
      <path d="m7.07.54C1.38,2.07-1.46,6.79.75,11.07c1.01,1.97,1.59,2.56,16.16,16.69l12.84,12.45,2.38,4.51c3.36,6.36,4.34,7.25,5.98,5.44.73-.8.71-.86-1.97-6.09-2.67-5.22-2.77-5.34-8.31-10.91-3.08-3.1-9.74-9.63-14.78-14.52C4.25,10.12,3.87,9.69,3.87,8.29c0-1.14.28-1.75,1.27-2.73,3.21-3.21,11.19-2.66,22.59,1.57,5.2,1.93,8.42,3.78,10.97,6.34,3.15,3.14,3.62,4.2,3.63,8.13,0,2.88-.14,3.59-1.2,5.8-.66,1.38-2.01,3.54-2.99,4.79-.98,1.25-1.89,2.59-2.01,2.98-.14.44.89,2.89,2.72,6.51,2.71,5.36,3.03,5.81,4,5.81,1.22,0,1.98-.63,1.98-1.63,0-.39-1.04-2.78-2.32-5.32l-2.32-4.62,2.07-3.05c3.04-4.46,3.87-6.85,3.9-11.09.02-3.16-.1-3.72-1.22-5.99-2.71-5.48-9.31-10.16-18.86-13.35C19.3.15,11.41-.63,7.07.54"/>
      <path d="m9.9,7.64c0,.76,23.54,24.08,24.54,24.31.28.06.64-.09.8-.34.31-.5-24-24.66-24.85-24.69-.27-.01-.48.31-.48.72"/>
    </g>
  </g>
</svg>