<?xml version="1.0" encoding="UTF-8"?>
<svg id="_图层_2" data-name="图层 2" xmlns="http://www.w3.org/2000/svg" viewBox="0 0 20.37 32.62">
  <g id="_图层_1-2" data-name="图层 1">
    <path d="m19.9,32.16c.26-.26.47-.71.47-1s-2.31-4.53-5.13-9.42c-2.82-4.89-4.99-9.02-4.82-9.17.17-.16,1.99-.59,4.05-.97,4.29-.8,4.88-1.14,3.68-2.12C16.84,8.4,1.63,0,.99,0,.52,0,.38,1.67.13,10.06c-.22,7.6-.17,10.18.18,10.52.36.35,1.19-.33,3.53-2.86l3.06-3.31.6.95c.33.52,2.59,4.4,5.02,8.62s4.59,7.89,4.81,8.16c.5.62,1.96.64,2.58.02"/>
  </g>
</svg>