<?xml version="1.0" encoding="UTF-8"?>
<svg id="_图层_2" data-name="图层 2" xmlns="http://www.w3.org/2000/svg" viewBox="0 0 74.28 27.15">
  <g id="_图层_1-2" data-name="图层 1">
    <g>
      <path d="m9.29,0L.78,12.3c-.84,1.22-1.01,2.78-.45,4.14l2.46,5.97c.19.47.85.52,1.1.07L15.36,2.67,9.29,0ZM1.61,13.39L8.91,2.85c.52-.75,1.43-1.11,2.32-.93l.43.09c1.57.32,2.32,2.11,1.45,3.46l-7.36,11.36c-.99,1.54-3.31,1.32-4-.37l-.38-.91c-.29-.71-.21-1.52.23-2.16Z"/>
      <path d="m15.59,2.74h58.21c.43,0,.63-.52.31-.8l-1.52-1.28c-.08-.07-.19-.11-.3-.11L9.29,0l6.11,2.7c.06.03.13.04.19.04Z"/>
      <path d="m73.84,2.24h-.08c-.09,0-.17.05-.2.13l-1.55,3.45c-.03.07-.1.12-.17.13l-43.98,5.77s-.08.02-.11.04l-19.14,14.39c-.08.06-.19.06-.27,0l-5.03-3.65c-.15-.11-.36,0-.36.17,0,.06.03.12.08.16l5.3,4.27c.08.07.2.07.28,0l2.54-1.97s.04,0,.06,0l17.69-5.71s.02,0,.04,0l17.76-2.35v2.14h-2.61c-.88,0-1.58.71-1.58,1.58v1.23c0,.87.71,1.58,1.58,1.58h10.58c.88,0,1.58-.71,1.58-1.58v-1.23c0-.87-.71-1.58-1.58-1.58h-2.28v-2.9l10.72-1.42s.05-.01.08-.03l8.64-5.25s.07-.07.09-.11l1.27-4.66s0-.07,0-.1l.86-2.2c.05-.14-.05-.29-.21-.29Zm-22.77,16.95h-3.07v-1.24h3.07v1.24Zm20.5-10.27s-.04.09-.08.11l-8.43,5.41s-.05.03-.08.03l-33.48,4.38s-.02,0-.04,0l-17.46,5.6,15.73-12.19s.07-.04.11-.05l44.35-5.74-.63,2.43Z"/>
    </g>
  </g>
</svg>