<?xml version="1.0" encoding="UTF-8"?>
<svg id="_图层_2" data-name="图层 2" xmlns="http://www.w3.org/2000/svg" viewBox="0 0 367.49 367.25">
  <g id="_图层_1-2" data-name="图层 1">
    <g>
      <path d="m175.3.88c-8.88,2.52-16.46,9.02-20,17.15-.97,2.23-2.5,9.9-3.4,17.05-2.19,17.42-2.97,19.92-7.86,25.24-5.28,5.75-10.59,8.21-17.69,8.21s-11.44-2.03-23.26-11.29c-14.24-11.14-16.4-12.1-27.24-12.1-10.28,0-14.52,1.65-21.99,8.53-6.03,5.55-8.87,12.51-8.95,21.91-.08,9.54,2.41,15.05,12.45,27.5,8.61,10.67,10.93,15.31,10.96,21.88.03,6.85-1.74,11.97-5.75,16.66-5.22,6.09-9.01,7.54-24.74,9.42-15.84,1.89-22.57,4.31-28.83,10.34-9.31,8.98-11.65,23.45-5.89,36.4,2.33,5.22,9.74,12.23,15.6,14.75,2.53,1.08,10.15,2.49,18.38,3.39,15.72,1.72,19.92,3.27,25.21,9.28,4.48,5.1,6.03,9.27,6.01,16.1-.03,7.55-2.04,11.72-10.98,22.78-10,12.38-12.51,17.92-12.43,27.5.08,9.4,2.92,16.35,8.95,21.91,7.47,6.88,11.71,8.53,21.99,8.53,10.84,0,13.63-1.23,26.39-11.65,13.71-11.19,21.06-13.65,31.49-10.57,5.44,1.61,13.79,9.91,15.35,15.28.64,2.2,1.89,9.62,2.77,16.5,2.87,22.37,9.77,31.75,25.72,34.97,14.31,2.89,27.49-3.46,33.7-16.25,2.4-4.94,3.35-8.91,4.61-19.22,2-16.37,2.79-18.81,7.8-24.25,5.62-6.09,10.81-8.57,17.84-8.51,7.29.06,11.85,2.34,23.46,11.74,13.32,10.77,15.98,11.96,26.86,11.96,7.41,0,9.76-.4,13.3-2.26,11.5-6.05,17.59-15.79,17.62-28.17.02-9.63-2.53-15.28-12.41-27.5-9.04-11.18-10.96-15.21-10.98-23.05-.04-10.13,5.84-19.16,14.66-22.52,1.55-.59,8.58-1.71,15.63-2.5,16.2-1.8,17.18-2.04,22.96-5.67,9.69-6.09,14.73-14.9,14.86-26.02.16-13.03-5.99-23.13-17.44-28.66-5.03-2.43-8.84-3.31-20.19-4.64-8.54-1.01-15.37-2.35-17.51-3.44-8.35-4.26-12.95-11.89-12.95-21.49,0-7.78,1.92-11.82,10.94-23,9.91-12.29,12.45-17.91,12.43-27.5-.02-12.19-6.09-22.18-16.85-27.79-4.38-2.28-6.28-2.64-14.06-2.64-10.95,0-13.01.91-27,11.89-12.05,9.46-16.21,11.5-23.5,11.5-7.89,0-13.56-2.87-19.23-9.75-3.36-4.08-4.26-7.4-6.25-23.21-2.41-19.07-8.05-28.56-19.92-33.52-5.17-2.16-15.16-2.73-20.65-1.18m15.67,14.61c2.26,1.03,5.36,3.51,6.89,5.51,2.47,3.24,2.98,5.31,4.66,18.86,2.24,18.11,4.87,24.67,12.86,32.15,7.86,7.35,14.58,10,25.48,10.04,4.95.02,10.89-.54,13.21-1.24,2.36-.72,9.78-5.47,16.92-10.84,13.67-10.28,15.69-11.38,20.87-11.38,13,0,21.74,14.45,15.23,25.19-1.23,2.03-5.37,7.65-9.21,12.5-8.28,10.46-10.99,15.44-12.59,23.11-2.34,11.26,2.69,25.92,11.78,34.29,7.02,6.47,13.6,8.92,29.68,11.06,17.12,2.27,16.89,2.21,21.71,6.56,8.87,8.02,6.91,21.68-3.91,27.19-2.22,1.13-8.88,2.53-16.69,3.51-15.97,2-23.04,4.48-29.57,10.35-4.42,3.98-8.8,6.86-12.05,17.89-.87,3.62-1.17,6.46-1.19,10.86-.06,10.68,2.08,15.77,11.93,28.44,10.25,13.18,12.35,16.78,12.37,21.25.06,13.88-15.41,22.72-26.59,15.2-2.14-1.44-6.82-4.96-10.39-7.83-13.06-10.47-19.84-13.52-30.2-13.54-12.26-.03-20.45,3.6-29.03,12.87-6.8,7.34-8.33,11.56-10.38,28.62-.86,7.15-2.38,14.88-3.39,17.18-4.08,9.35-16.16,12.79-24.8,7.07-6.06-4.01-7.69-8.13-9.62-24.25-1.18-9.86-2.38-15.54-4.05-19.22-3.41-7.46-10.59-14.7-18.4-18.54-6.1-3-7.33-3.24-16.61-3.24-12.56,0-15,1.05-31.18,13.4-8.22,6.28-13.15,9.36-15.62,9.76-10.86,1.76-20.72-6.41-20.72-17.18,0-4.73,1.61-7.64,10.57-19.11,8.85-11.31,12.13-17.41,13.56-25.14,2.96-16-8.06-35.04-23.72-40.98-3.39-1.29-11.46-2.91-18.91-3.8-15.48-1.86-17.43-2.53-21.92-7.49-6.14-6.8-5.85-16.48.68-22.66,4.82-4.56,6.41-5.11,19.69-6.75,15.06-1.86,19.12-2.92,25.76-6.69,6.44-3.66,11.41-9.35,15.59-17.83,2.82-5.72,3.18-7.41,3.11-14.5-.11-10.91-2.57-16.69-12.4-29.02-4.38-5.5-8.88-11.67-9.99-13.71-5.98-10.95,2.66-24.79,15.47-24.79,5.18,0,7.2,1.1,20.78,11.32,6.95,5.23,14.34,10.09,16.42,10.82s8.07,1.32,13.29,1.33c8.22.01,10.27-.35,15.22-2.65,7.8-3.64,15.15-10.77,18.77-18.21,2.37-4.86,3.29-8.76,4.51-19.1.84-7.15,1.79-14.25,2.1-15.77,1.25-6.12,9.99-12.68,16.9-12.68,1.65,0,4.85.84,7.12,1.87"/>
      <path d="m171.43,117.6c-14.32,3.02-24.79,8.65-35.12,18.88-13.57,13.45-20.73,31.9-19.62,50.6,1.33,22.37,14.88,44.4,33.66,54.75,11.13,6.14,19.7,8.25,33.5,8.25,9.76,0,13.4-.44,19.5-2.33,11.04-3.43,19.42-8.53,28.06-17.07,16.37-16.18,23.17-40.15,17.85-62.86-.61-2.61-3.18-9.01-5.72-14.24-7.9-16.29-22.23-28.57-39.69-34-7.92-2.47-25.13-3.51-32.42-1.98m27.98,15.26c20.23,6.9,34.19,23.27,36.9,43.28,3.64,26.91-11.63,50.1-38.79,58.92-4.09,1.33-7.83,1.65-16,1.37-10.14-.35-11.11-.58-19.47-4.59-14.19-6.81-24.71-18.23-28.75-31.2-4.17-13.4-3.25-28.19,2.52-40.38,5.67-11.98,20.95-24.51,34.41-28.23,7.78-2.14,21.62-1.75,29.19.83"/>
    </g>
  </g>
</svg>