<?xml version="1.0" encoding="UTF-8"?>
<svg id="_图层_2" data-name="图层 2" xmlns="http://www.w3.org/2000/svg" viewBox="0 0 45.56 43.95">
  <g id="_图层_1-2" data-name="图层 1">
    <g>
      <path d="m44.43,43.35s-.1-.08-.17-.15c-.07-.07-.25-.26-.4-.41-.15-.15-.32-.32-.37-.38-.23-.23-.46-.47-.73-.73-.16-.15-.49-.49-.75-.74s-.57-.57-.71-.7c-.14-.13-.39-.39-.57-.57-.44-.45-.91-.92-1.61-1.61-.33-.32-.75-.73-.93-.92-.18-.18-.35-.37-.36-.41-.09-.27.47-.88.82-.88.1,0,.13.02.38.29.28.31.89.91,1.38,1.38.16.15.33.32.39.39.15.16,1.43,1.4,1.51,1.46.04.03.25.24.47.47.22.23.48.48.56.56.09.08.32.3.51.49.58.57,1.18,1.14,1.2,1.13.03-.01.04,0-.36-.39-.2-.19-.55-.54-.78-.77-.23-.23-.5-.49-.59-.57-.09-.08-.24-.22-.32-.31-.09-.09-.21-.22-.28-.29-.07-.07-.16-.15-.2-.2-.04-.04-.42-.41-.85-.83-1.31-1.26-2.56-2.5-2.65-2.62-.03-.05-.06-.12-.05-.16.05-.29.05-.29-.35-.72-.21-.22-.43-.45-.5-.52-.07-.07-.31-.32-.54-.56-.23-.24-.47-.48-.53-.54-.06-.06-.17-.17-.25-.25-.07-.08-.22-.23-.33-.33-.49-.47-1.12-1.23-1.58-1.9-.34-.51-.67-1.21-.74-1.63-.05-.28-.04-.39.11-.93.19-.69.31-1.64.25-1.99-.02-.13-.12-.3-.18-.33-.02,0-.06-.05-.09-.1-.03-.05-.17-.2-.31-.33-.14-.13-.36-.36-.5-.5-.14-.14-.34-.34-.46-.45-.12-.11-.37-.35-.57-.53-.4-.39-.97-.92-1.34-1.24-.14-.12-.45-.4-.69-.62-.24-.22-.62-.56-.84-.76-.23-.2-.46-.41-.51-.46-.21-.2-1.14-1.02-2.15-1.91-.3-.26-.69-.61-.87-.77-.18-.16-.48-.43-.67-.58-.18-.16-.52-.45-.75-.65s-1.29-1.12-2.37-2.04c-1.08-.92-2.03-1.75-2.12-1.85-.09-.1-.35-.33-.58-.53s-.55-.47-.71-.61c-.39-.34-1.68-1.42-2.38-1.99-.3-.25-.74-.61-.98-.8s-.5-.41-.59-.48c-.46-.36-.84-.68-1.31-1.07-.29-.24-.68-.56-.88-.72-.44-.35-.94-.76-2.03-1.65-.22-.18-.5-.41-.64-.52s-.38-.31-.54-.44c-.38-.32-.67-.55-1.02-.82-.16-.12-.46-.36-.66-.53s-.6-.48-.88-.7c-.28-.22-.82-.64-1.19-.94-.37-.29-.72-.57-.78-.61s-.16-.13-.22-.18c-.06-.05-.2-.14-.31-.19-.16-.08-.24-.09-.51-.11-.45-.02-1.17.03-1.59.12-.39.08-.83.25-1.04.4-.39.28-.72.65-.76.85-.03.13.02.21.5.76.24.28.48.57.54.64.06.07.24.29.41.48.17.2.35.42.42.5.06.08.12.15.12.15s.09.11.19.23c.1.12.32.39.49.59.17.2.32.38.33.39s.18.22.38.45c.49.58,1.44,1.72,1.5,1.81.01.02.14.17.28.34.14.17.45.54.68.82.23.28.5.61.59.73.1.12.34.41.53.66s.42.52.5.62c.08.09.43.54.78.99.35.45.74.94.85,1.08.64.77,1.02,1.26,1.2,1.55.11.18.32.48.46.67.14.2.33.49.43.66.22.39.43.65,1.3,1.64.43.49.81.95.94,1.16.45.68.69.94,1.19,1.3.22.16.45.34.51.41.13.14.93.93,1.08,1.07.15.13.32.34.61.71.33.43,1.42,1.67,1.92,2.19.15.16.37.4.49.52s.26.28.33.35c.07.07.2.21.29.31s.25.27.35.38c.1.11.35.36.55.57.2.21.49.5.64.65.15.15.34.35.43.44.23.25.33.35.9.92.29.29.59.6.68.69.09.09.21.22.27.28.28.3.66.67.75.74.05.04.19.17.3.29.2.21.41.36,1.06.77.75.48,1.04.6,1.54.66.32.04,1.5.12,2.07.13.44.01.97.06,1.32.12.28.05,1.46.52,1.7.69.1.07.24.16.32.21.39.26,1.94,1.57,2.27,1.91.04.05.14.14.21.2.07.06.29.27.48.46s.52.51.73.7c.21.19.41.38.44.42.09.1.3.16.45.14.07-.01.15-.01.18,0s.2.18.4.37c.19.2.52.52.73.72.42.4,1.18,1.16,1.59,1.58.15.15.43.43.62.62.19.19.51.5.7.69.19.19.54.54.78.78.42.41,1.12,1.12,1.27,1.28.17.18.4.39.41.38.03-.01,0-.09-.04-.1ZM9.77,13.21s-.82-.99-1.21-1.5c-.25-.32-.91-1.16-1.09-1.37-.11-.14-.22-.26-.23-.28-.01-.02-.11-.13-.21-.26-.29-.35-1.11-1.35-1.16-1.42-.03-.04-.13-.17-.24-.29-.1-.12-.43-.51-.72-.87-.29-.35-.73-.88-.98-1.18-.25-.3-.54-.64-.65-.78-.64-.77-.82-.98-.92-1.11-.04-.05-.18-.23-.33-.4-.14-.17-.37-.45-.52-.62-.14-.17-.39-.46-.55-.64-.16-.18-.32-.4-.36-.47-.06-.13-.06-.14.01-.27.13-.23.4-.49.69-.69.31-.21,1.11-.44,1.66-.47,1.13-.07,1.32-.04,1.68.24.35.27.74.58,1,.79.1.08.4.32.67.53.27.21.61.48.76.61.15.12.31.25.36.28.04.03.22.18.39.32.32.26.54.43.88.69.11.08.36.29.56.46.2.17.46.38.56.47.73.6,1.26,1.03,1.4,1.14.09.07.38.3.64.52.27.22.55.44.63.5.14.1.78.63,1.13.92.09.08.36.3.6.49.49.4.47.38.94.77.19.16.44.37.55.45.11.09.4.32.65.53.25.21.5.41.55.45.11.09.08.1-.28.07-.79-.06-2.37.03-3.18.19-.83.16-1.45.38-2.05.75-.54.33-1,.72-1.36,1.15-.14.17-.27.3-.29.29Zm.82,1.03s-.21-.24-.66-.79c-.05-.07-.09-.14-.08-.17.04-.09.55-.68.73-.83.38-.33,1-.73,1.44-.93.29-.13.99-.34,1.41-.43.76-.15,2.4-.25,3.15-.19.19.01.36.02.39.02.1-.02.2.05.73.5.51.43.95.8,1.51,1.3.14.12.34.29.44.37.24.2.42.38.41.41,0,.01-.03.02-.05,0-.09-.03-.9-.08-1.25-.07-1.37.04-2.97.3-3.67.6-.11.05-.63.32-.73.38-.19.12-.61.45-.74.58-.06.07-.14.12-.16.12-.02,0-.19-.14-.36-.31-.17-.17-.35-.34-.4-.38-.54-.44-.91-.58-1.4-.54-.25.02-.43.09-.58.22-.07.06-.13.12-.14.12Zm3.05,4.11c-.07-.1-.35-.43-.91-1.08-.79-.92-1.07-1.3-1-1.36.02-.01.11-.04.21-.07.17-.04.2-.04.4.04.21.09.22.09.4.36.33.49.46.77.93,1.96.08.2.07.28-.02.14Zm3.1,3.22s-.1-.11-.17-.17c-.07-.07-.22-.22-.33-.34-.37-.39-.77-.77-1.06-.98-.41-.29-.48-.35-.67-.58-.35-.42-.55-.73-.71-1.14-.21-.54-.54-1.32-.67-1.59-.19-.39-.59-.98-.68-1.02-.01,0,0,.03.03.07.05.08.05.08-.18,0-.23-.09-.24-.09-.43-.03l-.2.07-.07-.12c-.04-.07-.07-.13-.06-.14.01-.03.24-.07.38-.06.07,0,.22.05.33.1.19.09.19.09.09,0-.22-.18-.48-.23-.73-.15l-.12.04-.11-.14c-.06-.07-.21-.28-.33-.45l-.22-.31.08-.04c.35-.19.52-.23.78-.18.23.04.26.05.48.18.37.22,1.04.86,1.38,1.31.37.49.91,1.28,1.27,1.89.06.09.23.38.39.64.16.25.37.63.48.84.11.21.32.61.47.9.47.89.77,1.62.58,1.39Zm8.26,8.78s-.69-.66-1.04-1.04c-.31-.33-.43-.46-.8-.82-.22-.22-.46-.46-.53-.54-.07-.08-.27-.28-.43-.44s-.36-.37-.43-.44c-.16-.17-.67-.69-.89-.91-.09-.09-.28-.29-.41-.44s-.36-.39-.49-.52c-.13-.13-.37-.39-.53-.57-.16-.18-.3-.33-.31-.33-.03-.01-1.21-1.35-1.4-1.59-.12-.16-.23-.28-.24-.29s-.14-.19-.3-.42c-.19-.28-.37-.58-.52-.92-.13-.28-.26-.55-.29-.61-.03-.06-.22-.42-.41-.79-.44-.85-.54-1.02-1.04-1.85-.37-.61-.94-1.46-.98-1.48,0,0-.1-.13-.21-.28-.52-.74-1.29-1.44-1.81-1.66-.31-.13-.53-.12-.9.03l-.27.11-.06-.13c-.05-.12-.05-.14.02-.21.16-.19.49-.29.89-.27.27.01.67.2.97.46.51.43.84.78,1.91,2.03.79.91,1.7,1.95,2.05,2.32.19.21.5.54.69.75.61.68,1.73,1.91,1.97,2.17.47.51.59.63.94,1.02.2.21.59.63.86.93.27.3.54.58.59.64s.2.22.33.36c.13.14.24.26.25.26s.13.13.28.29q.35.38.82.85c.5.51.54.55.89.91.16.16.49.5.74.75l.38.43-.04.12c-.15.55-.36,1.35-.23,1.94.02.1-.01.19-.02.19Zm2.11-4.79c-.53.3-.86.62-1.24,1.21-.19.31-.53,1.11-.64,1.53-.2.78-.29,1.47-.23,1.85.04.23.02.26-.06.08-.07-.17-.08-.36-.02-.89.07-.65.17-1.05.42-1.71.2-.52.26-.65.44-.94.38-.62.83-1.01,1.54-1.34.89-.41,1.43-.58,2.52-.82.66-.14.76-.19.21-.1-.37.06-.71.14-1.39.32-.3.08-1.28.48-1.6.66-.54.29-.84.55-1.19,1.02-.16.21-.23.35-.44.84-.29.67-.24.63-.49.37-.07-.07-.28-.29-.48-.49s-.39-.39-.43-.44c-.04-.04-.37-.38-.72-.75-.36-.37-.67-.69-.7-.72s-.11-.11-.18-.19c-.14-.14-.35-.37-.73-.78-.11-.12-.36-.39-.55-.59-.19-.2-.41-.43-.49-.52-.08-.09-.3-.32-.48-.53s-.4-.43-.47-.51c-.07-.08-.27-.29-.43-.47-.16-.18-.3-.33-.31-.33s-.27-.29-.58-.64c-.31-.35-.69-.77-.84-.93-.15-.16-.46-.5-.69-.76-.23-.26-.5-.54-.58-.63-.08-.09-.53-.59-1-1.12-.46-.53-1.09-1.25-1.4-1.61-.31-.35-.56-.65-.56-.65-.01-.03.59-.52.83-.69.27-.18.96-.5,1.27-.59.42-.12,1.06-.24,1.5-.3.92-.12,2.06-.16,2.67-.11.1,0,.2.02.22.02.11,0,.46.29,2.1,1.69,1,.85,2.06,1.77,2.38,2.04.31.27.68.59.82.72s.33.28.41.36.26.23.4.35c.13.12.38.33.54.48.16.14.32.29.36.32.19.16,1.34,1.18,2.12,1.89.26.23.54.48.61.55s.34.31.58.53c.24.23.59.54.76.69.18.15.4.35.5.44.3.28.75.71.85.82.05.05.13.13.17.17l.07.07-.15-.02c-.69-.07-.85-.08-1.03-.09-.12,0-.21,0-.21.01,0,.01-.11.04-.26.05-.41.05-1.17.22-2.13.47-.34.09-1.25.47-1.59.66Zm.11,6.36c-.43-.31-.39-1.08-.37-1.22.1-.68.2-1.02.45-1.66.25-.63.36-.82.61-1.12.16-.18.54-.49.82-.68.32-.21,1.38-.64,1.9-.77,1.06-.28,1.44-.34,2.24-.36.54,0,.74,0,1.14.07.34.06.35.06.41.16.05.08.04.08-.23,0-.27-.09-.67-.14-1.1-.12-.1,0-.3,0-.46,0-.39,0-.6.03-1.24.16-.7.14-1.24.31-1.84.55-.5.2-.77.35-1.18.66-.42.31-.65.66-.98,1.47-.3.73-.55,1.41-.5,2.04.04.54.35.85.31.81Zm10.28,4.67c-.06.14-.12.26-.13.25-.01,0-.05-.03-.08-.06-.03-.03-.22-.21-.42-.4s-.4-.38-.44-.42c-.64-.66-1.78-1.68-2.86-2.56-.09-.07-.41-.29-.74-.49-.3-.19-1.16-.53-1.49-.61-.42-.09-.86-.14-1.37-.15-.62-.02-1.8-.09-2.12-.13-.38-.05-.62-.12-.7-.22-.09-.1-.18-.37-.19-.54-.02-.39.24-1.59.49-2.19.16-.4.53-1,.73-1.21.29-.28.89-.64,1.47-.86,1.33-.52,2.48-.74,3.71-.7.61.02,1,.13,1.08.31.09.21-.06,1.28-.29,2.07-.06.19-.1.41-.09.49.01.43.26,1.11.64,1.73.3.5,1.04,1.43,1.48,1.87.09.09.19.19.24.23.04.04.24.24.43.44.2.2.42.43.49.5.07.08.22.23.32.33s.26.27.35.37c.3.32.58.61.69.69l.1.08-.22.08c-.42.15-.88.63-1.07,1.1Z" style="fill: none; stroke: #fff;"/>
      <path d="m28.94,29.95c-.29-.01-.7.12-.85.27-.04.04-.11.16-.15.25-.06.15-.06.18,0,.35.09.25.23.37.52.46.29.09.57.08.88-.05.29-.12.41-.25.44-.48.04-.34-.1-.53-.49-.69-.14-.06-.3-.1-.35-.1" style="fill: none; stroke: #fff; stroke-width: 2px;"/>
      <path d="m16.66,11.68c-.36-.07-.73-.05-.85.05-.15.12-.06.33.26.57.34.25,1.06.49,1.43.47.23,0,.35-.06.39-.17.05-.11,0-.2-.23-.42-.16-.15-.25-.2-.52-.33-.18-.08-.39-.16-.47-.18m.74.39c.21.15.42.39.4.47-.02.1-.2.18-.37.17-.41-.03-1.02-.24-1.33-.46-.44-.31-.36-.6.16-.55.48.05.82.16,1.13.37" style="stroke: #fff;"/>
    </g>
  </g>
</svg>