<?xml version="1.0" encoding="UTF-8"?>
<svg id="_图层_2" data-name="图层 2" xmlns="http://www.w3.org/2000/svg" viewBox="0 0 54.11 43.26">
  <g id="_图层_1-2" data-name="图层 1">
    <g>
      <path d="m52.15,13.46H17.84c-1.08,0-1.96.88-1.96,1.96v25.89c0,1.08.88,1.96,1.96,1.96h34.32c1.08,0,1.96-.88,1.96-1.96V15.42c0-1.08-.88-1.96-1.96-1.96Zm-2.05,27.76h-30.23c-1.08,0-1.96-.88-1.96-1.96v-1.67c0-1.99.03-3.65.06-3.68.03-.03,7.71-.05,17.05-.04l15.05.02c1.07,0,1.95.87,1.95,1.94v1.72s.02,1.69.02,1.69c0,1.09-.87,1.97-1.96,1.97Zm1.97-12.91v1.64c0,1.08-.88,1.96-1.96,1.96h-30.24c-1.08,0-1.96-.88-1.96-1.96v-3.27c0-1.08.88-1.96,1.96-1.96h30.24c1.08,0,1.96.88,1.96,1.96v1.64Zm0-9.22v1.64c0,1.08-.88,1.96-1.96,1.96h-30.24c-1.08,0-1.96-.88-1.96-1.96v-3.27c0-1.08.88-1.96,1.96-1.96h30.24c1.08,0,1.96.88,1.96,1.96v1.64Z"/>
      <path d="m36.95,11.35c.7,0,1.28-.57,1.28-1.28V1.79c0-.99-.8-1.79-1.79-1.79H1.79C.8,0,0,.8,0,1.79v26.22c0,.99.8,1.79,1.79,1.79h10.78c.7,0,1.28-.57,1.28-1.28l.23-15.37c.02-1.05.87-1.89,1.93-1.89.73,0,20.95.08,20.95.08ZM2.04,5.63v-1.79c0-.99.81-1.79,1.8-1.79h3.1s3.13.03,3.13.03c.98,0,1.78.8,1.78,1.78v1.8s.02,1.77.02,1.77c0,.99-.8,1.8-1.79,1.8H3.83c-.99,0-1.79-.8-1.79-1.79v-1.8Zm9.8,18.45v1.85c0,.99-.8,1.79-1.78,1.79h-3.12s-3.1.03-3.1.03c-.99,0-1.8-.8-1.8-1.79v-1.82c0-1.99.03-3.65.06-3.68.03-.03,2.24-.05,4.9-.04h3.06c.99.02,1.78.82,1.78,1.8v1.85Zm.04-9.22v1.8c0,.99-.8,1.79-1.79,1.79H3.83c-.99,0-1.79-.8-1.79-1.79v-3.6c0-.99.8-1.79,1.79-1.79h6.26c.99,0,1.79.8,1.79,1.79v1.8Zm14.01-9.17c0-1.94.03-3.56.06-3.59.03-.03,2.35-.06,5.14-.06h3.3c.99,0,1.79.8,1.79,1.79v3.6c0,.99-.8,1.79-1.79,1.79h-6.71c-.99,0-1.79-.8-1.79-1.79v-1.74Zm-11.97,1.74v-1.74c0-1.94.03-3.56.06-3.59.03-.03,2.26-.05,4.94-.04h3.11c.98.02,1.78.81,1.78,1.79v1.8s.02,1.77.02,1.77c0,.99-.8,1.8-1.79,1.8h-6.34c-.99,0-1.79-.8-1.79-1.79Z"/>
    </g>
  </g>
</svg>