<?xml version="1.0" encoding="UTF-8"?>
<svg id="_图层_2" data-name="图层 2" xmlns="http://www.w3.org/2000/svg" viewBox="0 0 24.36 53.14">
  <g id="_图层_1-2" data-name="图层 1">
    <path d="m3.09.74c-.9.35-1.45.87-1.93,1.81-.55,1.1-.74,2.26-.64,3.89.14,2.24,1.05,12.32,1.47,16.35.46,4.38.22,3.46,2.2,8.17l.78,1.85v6.54s0,6.54,0,6.54l.39.51c.22.28,1.43,1.8,2.69,3.37l2.3,2.86h3.68l2.31-2.87c1.27-1.58,2.48-3.12,2.7-3.42l.4-.55v-6.52s0-6.52,0-6.52l.77-1.82c.42-1,1-2.37,1.27-3.04l.5-1.22.43-4.19c.75-7.2,1.43-15.08,1.44-16.53,0-1.06-.04-1.54-.21-2-.52-1.44-1.47-2.44-2.87-3.01-.59-.24-.89-.27-2.61-.28-1.79,0-2.03.02-3.04.33-2.21.68-3.66.66-7.46-.1-2.45-.49-3.64-.54-4.58-.18m2.61.84c.3.05,1.39.28,2.43.5,1.65.35,2.12.4,3.83.41,1.89.01,1.99,0,3.34-.41,1.28-.39,1.52-.42,2.92-.42,1.38,0,1.58.03,2.22.33,1.07.5,1.51.89,1.94,1.76.3.62.4.98.44,1.72.06,1-.33,5.87-1.02,12.73-.23,2.34-.49,4.9-.57,5.68-.08.79-.18,1.43-.22,1.43s-.85-.82-1.8-1.81l-1.72-1.81-.19-1.44c-.72-5.54-.96-6.42-1.95-7.08-.71-.47-1.15-.53-3.58-.48-1.93.04-2.01.05-2.58.38-1.14.67-1.26,1.05-1.97,6.33l-.31,2.29-1.72,1.81c-.95,1-1.76,1.81-1.81,1.81-.1,0-.12-.18-.6-4.86-.54-5.29-1.22-13.61-1.22-14.83C1.57,2.51,3.03,1.09,5.71,1.58m14.86,25.6s-.15.61-.42,1.27l-.49,1.2-3.06,1.91c-1.68,1.05-3.85,2.4-4.82,3-1.89,1.17-3.7,2.3-4.88,3.04-.4.25-.78.43-.84.39-.07-.04-.11-1.24-.11-2.81v-2.74l-.84-1.97c-1.05-2.47-1.34-3.21-1.25-3.3.09-.09,16.62-.09,16.71,0m-1.91,4.75c-.14.34-.18.95-.18,2.61,0,2.11,0,2.17-.27,2.36-.37.26-1.64,1.06-6.11,3.83-2.07,1.29-4.24,2.64-4.83,3-.58.36-1.11.63-1.19.58-.08-.05-.13-.93-.13-2.49v-2.41l1.43-.88c.79-.49,1.92-1.2,2.52-1.58.6-.38,2.05-1.29,3.22-2.01,1.17-.72,2.89-1.79,3.83-2.38s1.74-1.07,1.79-1.07c.05,0,.01.19-.09.43m-.19,8.76v2.33s-.39.3-.39.3c-.22.16-1,.67-1.73,1.12-2.4,1.48-3.74,2.31-5.55,3.44-.98.61-1.83,1.11-1.9,1.11-.11,0-2.59-3.03-2.68-3.27-.02-.06.47-.42,1.09-.8.62-.39,1.92-1.2,2.89-1.8.97-.6,2.2-1.37,2.74-1.7.53-.33,1.68-1.04,2.55-1.58.87-.54,1.85-1.15,2.18-1.38.44-.3.63-.36.7-.26.05.08.1,1.2.1,2.48m-3.53-26.54c.2.19.42.52.49.73.1.32.98,6.05.98,6.39,0,.08-1.45.12-4.19.12-3.91,0-4.19-.01-4.19-.21,0-.68.97-6.36,1.13-6.67.36-.7.73-.78,3.21-.75l2.21.03.37.35m3.52,10.02c.94.99,1.68,1.84,1.63,1.88-.1.1-15.66.1-15.76,0-.04-.04.69-.89,1.63-1.88l1.71-1.81h9.06l1.71,1.81m0,20.83c.03.39-.16.67-2.44,3.52l-2.47,3.09h-2.65l-.64-.79c-.35-.43-.63-.84-.61-.9.03-.1,2.37-1.6,4.76-3.06.6-.37,1.7-1.04,2.43-1.51.74-.46,1.39-.83,1.46-.81.07.02.14.22.16.46" style="stroke: #000;"/>
  </g>
</svg>