<?xml version="1.0" encoding="UTF-8"?>
<svg id="_图层_2" data-name="图层 2" xmlns="http://www.w3.org/2000/svg" viewBox="0 0 55.59 49.22">
  <g id="_图层_1-2" data-name="图层 1">
    <path d="m42.29,10.43c-6.26-11.29-22.96-11.16-29.59-.04-.05.08-.09.17-.13.26L2.14,35.81c-.49,1.19.38,2.49,1.66,2.49h47.98c1.3,0,2.17-1.34,1.65-2.53l-11.06-25.17c-.03-.06-.06-.12-.09-.18Z" style="fill: none; fill-rule: evenodd; stroke: #231815; stroke-miterlimit: 10; stroke-width: 4px;"/>
    <path d="m33.27,43.24c-.67,2.58-3,4.49-5.79,4.49s-5.12-1.91-5.79-4.49h1.09c.63,1.99,2.5,3.44,4.7,3.44s4.07-1.44,4.7-3.44h1.09Z" style="fill: none; fill-rule: evenodd; stroke: #231815; stroke-miterlimit: 10; stroke-width: 3px;"/>
  </g>
</svg>