<?xml version="1.0" encoding="UTF-8"?>
<svg id="_图层_2" data-name="图层 2" xmlns="http://www.w3.org/2000/svg" viewBox="0 0 44.18 44.18">
  <g id="_图层_1-2" data-name="图层 1">
    <path d="m15.97.39c-.21.26-.35,2.92-.4,7.73l-.08,7.33-7.33.08c-4.81.05-7.47.19-7.73.4-.57.47-.57,11.81,0,12.28.26.21,2.92.35,7.73.4l7.33.08.08,7.33c.05,4.81.19,7.47.4,7.73.46.55,11.87.57,12.23.02.13-.2.3-3.68.39-7.73l.15-7.36,7.36-.08c6.5-.07,7.4-.13,7.73-.57.26-.35.37-2.06.37-6.01,0-4.62-.08-5.59-.46-5.98-.4-.4-1.52-.46-7.8-.46h-7.34v-7.34c0-6.28-.07-7.4-.46-7.8-.39-.39-1.37-.46-6.14-.46-4.37,0-5.76.09-6.01.39m9.67,9.76c0,6.82.03,7.24.59,7.8s.98.59,7.8.59h7.21v7.36h-7.34c-6.28,0-7.4.07-7.8.46-.4.4-.46,1.52-.46,7.81v7.35l-3.61-.08-3.61-.08-.08-7.33c-.05-4.75-.19-7.47-.4-7.72-.25-.3-2.04-.4-7.72-.47l-7.4-.08-.08-3.61-.08-3.61h7.15c6,0,7.26-.07,7.81-.46.65-.45.65-.55.65-7.8V2.94h7.36v7.21"/>
  </g>
</svg>