<?xml version="1.0" encoding="UTF-8"?>
<svg id="_图层_2" data-name="图层 2" xmlns="http://www.w3.org/2000/svg" viewBox="0 0 43.49 26.89">
  <g id="_图层_1-2" data-name="图层 1">
    <path d="m29.65,21.78c.03-6.28-1.95-10.67-4.81-13.56-3.19-3.22-7.67-4.77-12.28-4.82-2.64-.03-5.52.49-7.91,1.8-1.44.79-3.2,1.02-4.47-.03l-.18-.14c1.47-1.73,1.74-2.04,3.04-2.82C5.73.59,9.23-.04,12.6,0c5.31.06,10.71,1.85,14.65,5.83,3.57,3.6,5.79,8.85,5.79,15.81l6.39-9.69.02-.02c.9-1.09,2.48-1.53,3.81-.79l.24.14-9.7,14.96h-.01c-.54.72-1.56.86-2.27.32l-15.24-10.91.27-.28h0c.48-.45,1.05-.91,1.74-1.09.71-.18,1.52-.05,2.44.6l8.91,6.89h0Z" style="fill: #050b27;"/>
  </g>
</svg>