<?xml version="1.0" encoding="UTF-8"?>
<svg id="_图层_2" data-name="图层 2" xmlns="http://www.w3.org/2000/svg" viewBox="0 0 53.73 54.91">
  <g id="_图层_1-2" data-name="图层 1">
    <g>
      <path d="m22.01,5.64c-.98,1.12-1.46,2.52-1.37,4,.05.79.49,3.23.77,4.3.63,2.38,1.53,4.56,2.82,6.85.39.69.8,1.29,1.88,2.76,1.08,1.47,1.53,2.03,2.08,2.61,1.78,1.88,3.67,3.44,5.71,4.72.92.58,3.27,1.78,4,2.04.9.32,1.85.4,2.78.23.94-.17,1.53-.42,2.27-.97.93-.68,2.15-2.14,4.18-5,3.04-4.26,5.21-8.36,5.99-11.27.59-2.2.49-4.98-.27-7.3-.47-1.44-.91-2.3-1.77-3.48-1.16-1.57-2.51-2.7-4.43-3.68C44.78.49,42.84.01,40.81,0c-4.02-.02-10.8,1.65-16.46,4.07-.89.38-1.89,1.05-2.34,1.56m3.57.99c3.18-1.38,7.66-2.73,11.05-3.35,4.06-.74,6.31-.54,8.85.77,1.49.77,2.42,1.55,3.32,2.77,1.33,1.8,1.93,3.93,1.83,6.52-.05,1.28-.29,2.24-.97,3.87-.37.89-1.37,2.88-1.94,3.87-1.45,2.53-3.75,5.78-5.65,8.01-1.28,1.49-2.28,1.67-4.17.74-2.81-1.38-5.17-3.09-7.36-5.31-.89-.91-3.44-4.36-4.04-5.47-1.47-2.75-2.4-5.49-2.9-8.61-.18-1.14-.1-1.99.26-2.54.31-.48.86-.88,1.73-1.26"/>
      <path d="m14.69,13.03c-.35.27-3.69,2.79-7.44,5.6C3.19,21.68.38,23.83.28,23.95c-.21.27-.32.76-.26,1.16.11.69.86,1.21,1.6,1.11l.34-.04,8.12-6.09c4.63-3.48,8.22-6.2,8.36-6.35.46-.5.5-1.25.1-1.79-.26-.36-.56-.52-1.03-.57-.59-.06-.6-.05-2.83,1.66"/>
      <path d="m24.14,41.01c-3.82,2.87-7.03,5.32-7.15,5.43-.68.67-.36,1.97.56,2.28.33.11.67.1,1.02-.03.23-.08,16.13-12.03,16.51-12.4.28-.27.42-.71.37-1.14-.03-.32-.08-.41-.32-.7-.38-.45-.77-.6-1.32-.49-.4.07-.42.08-1.57.95-.64.48-4.28,3.22-8.1,6.1"/>
      <path d="m14.86,30.42c-3.96,2.99-6.15,4.68-6.26,4.82-.09.12-.2.36-.24.54-.22,1.02.58,1.89,1.6,1.72l.36-.06,6.62-4.98c3.64-2.74,6.78-5.13,6.97-5.31.24-.23.38-.42.45-.64.13-.38.04-1-.19-1.31-.35-.48-1.11-.68-1.68-.45-.16.06-.57.33-.91.59-.34.26-3.37,2.55-6.72,5.08"/>
      <text transform="translate(39.78 49.59)" style="font-family: MicrosoftYaHei, &apos;Microsoft YaHei&apos;; font-size: 20.85px;"><tspan x="0" y="0">C</tspan></text>
    </g>
  </g>
</svg>