<?xml version="1.0" encoding="UTF-8"?>
<svg id="_图层_2" data-name="图层 2" xmlns="http://www.w3.org/2000/svg" viewBox="0 0 25.86 15.3">
  <g id="_图层_1-2" data-name="图层 1">
    <g>
      <path d="m1.94,8.19c0,1.19.43,3.12,1.72,4.42l-1.4,1.4c-1.29-1.51-2.26-3.56-2.26-5.82C0,3.66,3.66,0,8.08,0h14.54l-5.06,5.17V1.94h-9.48c-3.66,0-6.14,3.56-6.14,6.25Z"/>
      <path d="m23.92,7.11c0-1.19-.43-3.12-1.72-4.42l1.4-1.4c1.4,1.51,2.26,3.56,2.26,5.82,0,4.52-3.66,8.19-8.08,8.19H3.23l5.06-5.17v3.34h9.48c3.66-.11,6.14-3.66,6.14-6.36Z"/>
    </g>
  </g>
</svg>