<?xml version="1.0" encoding="UTF-8"?>
<svg id="_图层_2" data-name="图层 2" xmlns="http://www.w3.org/2000/svg" viewBox="0 0 76 50.02">
  <g id="_图层_1-2" data-name="图层 1">
    <g>
      <g>
        <rect x="43.1" y="13.11" width="32.9" height="3.13" rx="1.57" ry="1.57"/>
        <rect x="43.1" y="23.29" width="32.9" height="3.13" rx="1.57" ry="1.57"/>
        <rect x="43.1" y="34.26" width="32.9" height="3.13" rx="1.57" ry="1.57"/>
      </g>
      <path d="m14.04.64c-.42.1-1.2.33-1.73.51-.96.34-.97.34-1.86.13-.49-.11-1.45-.21-2.13-.21-4.24,0-7.13,2.67-7.73,7.18-.29,2.16.14,5.25,1.33,9.61.72,2.63,1.03,4.28,1.36,7.13.19,1.72.22,3.01.19,9.42-.04,7.74.03,9.23.51,11.76.3,1.57.51,2.11.98,2.62.5.53.96.73,1.68.73,1.53,0,2.2-.71,2.71-2.86.24-1.02.35-1.95.65-5.56.19-2.23.51-3.77,1.28-6.06.82-2.44,1.3-3.38,2.22-4.36,2.19-2.34,5.23-1.77,6.96,1.3.4.72,1.45,3.57,1.91,5.2.28.98.56,3.05.73,5.33.24,3.22.66,5.28,1.23,6.03.89,1.17,2.7,1.29,3.68.24.48-.51.68-1.06.98-2.62.51-2.69.58-4.07.49-10.66-.12-9.35.19-12.81,1.64-17.98,1.36-4.85,1.64-7.94.97-10.6-.37-1.47-.93-2.52-1.88-3.53-1.03-1.09-1.82-1.6-3.09-2.01-1.23-.39-3.18-.44-4.63-.1-.88.2-.97.2-1.48,0-1.48-.6-2.19-.73-4.2-.78-1.38-.03-2.23,0-2.76.13m-4.03,1.82c.5.11,1.2.33,1.58.48.91.37,5.01,2.79,7.6,4.48,1.98,1.29,2.5,1.51,2.5,1.07,0-.16-1.91-1.79-3.31-2.83-.37-.28-.67-.54-.67-.59s.19-.2.42-.34c.23-.14.97-.57,1.64-.97,1.49-.88,2.4-1.21,3.95-1.4,2.09-.26,3.96.27,5.29,1.51,1.41,1.32,2.05,2.91,2.16,5.41.11,2.47-.11,3.78-1.57,9.17-.37,1.36-.99,5.25-1.24,7.71-.11,1.09-.14,3.06-.1,6.1.12,9.06.04,11.01-.53,13.87-.33,1.65-.41,1.84-.96,2.06-1.49.62-2.02-.74-2.51-6.49-.28-3.34-.75-5.54-1.68-7.86-1.22-3.05-2.15-4.42-3.52-5.13-2.06-1.08-4.63-.71-6.27.9-.82.8-1.38,1.8-2.33,4.12-.98,2.4-1.46,4.63-1.73,8.05-.29,3.58-.7,5.69-1.21,6.21-.49.49-1.55.37-1.86-.21-.18-.33-.64-2.76-.78-4.07-.24-2.3-.28-4.83-.15-8.99.24-7.26-.23-12.18-1.66-17.39-1-3.66-1.17-4.6-1.25-6.81-.1-3.18.4-4.82,1.94-6.37,1.62-1.62,3.82-2.2,6.25-1.65m9.03-.51c1.04.26,1.11.16-1.07,1.43l-1.47.85-.65-.36c-1.22-.67-2.64-1.55-2.64-1.65,0-.11.84-.35,1.73-.5.94-.15,3.08-.04,4.1.21" style="stroke: #000;"/>
    </g>
  </g>
</svg>