<?xml version="1.0" encoding="UTF-8"?>
<svg id="_图层_2" data-name="图层 2" xmlns="http://www.w3.org/2000/svg" viewBox="0 0 38.49 45.13">
  <g id="_图层_1-2" data-name="图层 1">
    <g>
      <path d="m38.49,18.19h0c0-.26-.19-.48-.45-.52-4.87-.75-8.76-4.65-9.51-9.52-.04-.26-.26-.45-.53-.45h-.89c-.26,0-.49.19-.53.45-.75,4.88-4.64,8.77-9.51,9.52-.26.04-.45.26-.45.52h0v.44s0,.44,0,.44h0c0,.26.19.48.45.52,4.87.75,8.76,4.65,9.51,9.52.04.26.26.45.53.45h.89c.26,0,.49-.19.53-.45.75-4.88,4.64-8.77,9.51-9.52.26-.04.45-.26.45-.52h0v-.44s0-.44,0-.44Zm-10.82,10.44h-.22c-.91-4.99-4.91-8.99-9.9-9.9v-.2c4.98-.91,8.98-4.92,9.9-9.9h.22c.91,4.99,4.91,8.99,9.9,9.9v.2c-4.98.91-8.98,4.92-9.9,9.9Z"/>
      <path d="m27.21,33.28c-1.73,5.84-6.61,10.05-12.37,10.05-7.2,0-13.04-6.58-13.04-14.7C1.8,19.19,14.86,2.88,14.86,2.88c0,0,1.95,2.44,4.34,5.98.24-.13.48-.26.72-.37-2.32-3.43-4.24-5.86-4.44-6.11l-.62-.78-.62.78c-.54.67-13.23,16.63-13.23,26.25,0,8.55,6.21,15.5,13.84,15.5,6.2,0,11.47-4.6,13.22-10.91-.28.03-.56.05-.85.06Z" style="stroke: #000; stroke-width: 2px;"/>
    </g>
  </g>
</svg>