<?xml version="1.0" encoding="UTF-8"?>
<svg id="_图层_2" data-name="图层 2" xmlns="http://www.w3.org/2000/svg" viewBox="0 0 51.73 47.19">
  <g id="_图层_1-2" data-name="图层 1">
    <g>
      <path d="m21.28,5.45c-.94,1.08-1.41,2.44-1.32,3.86.05.76.47,3.12.75,4.16.61,2.3,1.48,4.41,2.72,6.62.38.67.77,1.25,1.82,2.67s1.48,1.97,2.01,2.52c1.72,1.82,3.55,3.33,5.52,4.57.89.56,3.16,1.72,3.87,1.98.87.31,1.79.39,2.69.23.91-.17,1.48-.41,2.2-.94.89-.66,2.07-2.07,4.04-4.83,2.94-4.12,5.04-8.08,5.79-10.9.57-2.13.47-4.82-.26-7.06-.45-1.4-.88-2.23-1.72-3.37-1.12-1.52-2.43-2.61-4.28-3.56C43.3.48,41.43.01,39.46,0c-3.89-.02-10.44,1.6-15.91,3.94-.87.37-1.83,1.01-2.26,1.51m3.45.96c3.08-1.33,7.41-2.64,10.69-3.24,3.92-.71,6.1-.52,8.55.74,1.44.74,2.34,1.49,3.22,2.68,1.29,1.74,1.86,3.8,1.77,6.31-.05,1.24-.28,2.17-.94,3.74-.36.86-1.33,2.78-1.88,3.75-1.4,2.44-3.62,5.59-5.47,7.74-1.24,1.44-2.21,1.61-4.04.71-2.72-1.34-5-2.98-7.12-5.13-.86-.88-3.32-4.21-3.9-5.29-1.42-2.65-2.32-5.31-2.8-8.33-.18-1.1-.09-1.93.25-2.46.3-.46.83-.85,1.68-1.21"/>
      <path d="m14.2,12.6c-.34.26-3.57,2.7-7.19,5.41C3.08,20.97.37,23.04.27,23.16c-.21.26-.31.73-.25,1.12.11.67.83,1.17,1.55,1.07l.33-.04,7.85-5.89c4.48-3.36,7.95-6,8.09-6.14.44-.48.48-1.2.09-1.73-.25-.34-.54-.51-.99-.55-.57-.06-.58-.05-2.74,1.61"/>
      <path d="m23.34,39.66c-3.69,2.78-6.8,5.14-6.91,5.25-.66.65-.35,1.9.54,2.21.32.11.64.1.98-.02.22-.08,15.6-11.63,15.97-11.99.27-.26.41-.68.36-1.1-.03-.31-.07-.4-.31-.68-.37-.44-.74-.58-1.28-.48-.39.07-.4.08-1.52.92-.62.47-4.14,3.12-7.83,5.9"/>
      <path d="m10.78,23.63c-4.08,3.08-6.38,4.85-6.49,4.99-.09.11-.19.35-.23.52-.22.99.56,1.82,1.55,1.67l.35-.06,7.01-5.29c7.76-5.85,7.22-5.41,7.3-6.07.11-.86-.69-1.65-1.55-1.52-.42.06-.27-.04-7.96,5.76"/>
      <path d="m18.75,34.62c-4.06,3.07-6.3,4.79-6.41,4.92-.09.11-.19.35-.23.52-.21.98.55,1.81,1.53,1.67l.34-.05,3.35-2.53c9.79-7.38,10.65-8.04,10.82-8.33.64-1.12-.47-2.41-1.69-1.94-.13.05-.51.3-.85.56s-3.43,2.59-6.86,5.18"/>
      <path d="m14.37,29.42c-3.83,2.89-5.95,4.53-6.06,4.66-.09.11-.19.35-.23.52-.22.99.56,1.82,1.55,1.67l.35-.06,6.4-4.82c3.52-2.65,6.55-4.96,6.74-5.14.24-.22.37-.41.44-.62.12-.36.04-.96-.19-1.27-.34-.46-1.07-.66-1.62-.44-.15.06-.55.32-.88.57-.33.25-3.26,2.46-6.5,4.91"/>
    </g>
  </g>
</svg>