<?xml version="1.0" encoding="UTF-8"?>
<svg id="_图层_2" data-name="图层 2" xmlns="http://www.w3.org/2000/svg" viewBox="0 0 51.03 46.95">
  <g id="_图层_1-2" data-name="图层 1">
    <path d="m39.56,24.94l-1.42-1.09-2.08-7.75-2.08,7.75-1.42,1.09h-5.27l-3.21,11.94h-2.84s-5.58-20.77-5.58-20.77l-2.08,7.75-1.42,1.09H2.22c6.21,13.35,23.3,22,23.3,22,0,0,17.09-8.66,23.3-22h-9.26Z" style="fill: #4d4d4d;"/>
    <path d="m25.52,45.79c-2.63-1.42-15.78-8.95-21.65-19.83h8.62l1.97-1.51,1.19-4.42,4.8,17.86h4.4s3.21-11.94,3.21-11.94h4.83l1.97-1.51,1.19-4.42,1.19,4.42,1.97,1.51h7.95c-5.87,10.89-19.02,18.4-21.65,19.83Z"/>
    <path d="m36.31,0C32.05,0,28.21,1.9,25.52,4.93,22.83,1.9,18.99,0,14.72,0,6.59,0,0,6.9,0,15.41c0,2.29.39,4.49,1.06,6.59h9.95l3.21-11.94h2.84s5.58,20.77,5.58,20.77l2.08-7.75,1.42-1.09h5.27l3.21-11.94h2.84l3.21,11.94h9.29c.68-2.1,1.06-4.3,1.06-6.59C51.03,6.9,44.44,0,36.31,0Zm12.15,20h-6.25l-3.21-11.94h-5.91l-3.21,11.94h-4.41l-2.5,1.91-.33,1.22-4.05-15.07h-5.91s-3.21,11.94-3.21,11.94H2.57c-.38-1.54-.57-3.08-.57-4.59C2,8.02,7.71,2,14.72,2c3.56,0,6.86,1.51,9.3,4.26l1.5,1.69,1.5-1.69c2.44-2.75,5.74-4.26,9.3-4.26,7.02,0,12.72,6.02,12.72,13.41,0,1.52-.19,3.06-.57,4.59Z"/>
  </g>
</svg>