<?xml version="1.0" encoding="UTF-8"?>
<svg id="_图层_2" data-name="图层 2" xmlns="http://www.w3.org/2000/svg" viewBox="0 0 59.33 48.38">
  <g id="_图层_1-2" data-name="图层 1">
    <g>
      <path d="m.98,7.14c-.57.21-.98.78-.98,1.37,0,.28.49,2.29,1.34,5.49.17.62.94,3.63,1.72,6.68,1.83,7.15,2.6,10.16,2.9,11.22.37,1.33.89,2.1,1.85,2.75.28.19.69.41.91.49.91.34,1,.35,8.49.33l6.99-.02.33-.19c.44-.26.67-.62.72-1.14.04-.49-.06-.83-.34-1.16-.45-.51.16-.47-7.76-.51l-7.13-.03-.29-.15c-.4-.22-.69-.6-.85-1.12-.26-.88-2.22-8.69-2.19-8.72.02-.02.51.28,1.09.67,1.95,1.29,2.92,1.63,4.74,1.69,1.24.04,2.04-.06,2.99-.39.72-.25,1.27-.54,2.31-1.24,1.46-.98,1.99-1.17,3.31-1.17s1.83.18,3.3,1.16c1.05.7,1.57.98,2.28,1.23.94.33,1.83.45,3.05.41,1.8-.06,2.82-.43,4.68-1.66,1.49-.99,1.91-1.14,3.25-1.14s1.82.17,3.36,1.2c1.77,1.18,2.79,1.54,4.53,1.61,2.14.08,3.34-.28,5.31-1.59,1.09-.72,1.68-1.04,1.74-.95.02.03-.07.46-.2.95-.13.49-.66,2.53-1.17,4.55-.51,2.02-.98,3.75-1.03,3.86-.12.24-.42.51-.73.68-.23.12-.58.13-7.37.16l-7.13.03-.29.19c-.82.54-.93,1.65-.24,2.35.48.48.14.46,8.08.44,7.97-.02,7.33.02,8.46-.54,1.02-.51,1.87-1.51,2.23-2.64.17-.52,1.41-5.31,2.7-10.36.63-2.48,1.35-5.27,1.59-6.2.25-.93.76-2.92,1.14-4.41.66-2.61.69-2.73.61-3.07-.11-.49-.35-.81-.77-1.02-.73-.36-1.59-.14-2.02.53-.12.19-.39,1.2-1.74,6.49-.59,2.31-1.1,4.31-1.13,4.45l-.06.24-.59.09c-1.27.18-2.1.54-3.62,1.57-1.59,1.07-2.07,1.23-3.57,1.18-1.3-.05-1.68-.19-3.13-1.18-1.03-.71-1.33-.87-1.98-1.13-1.66-.66-4.12-.67-5.82-.03-.6.22-1.02.47-2.08,1.18-1.45.98-1.8,1.12-3.05,1.17-1.5.06-2-.1-3.55-1.13-1.19-.8-1.59-1.02-2.35-1.29-1.49-.53-3.75-.54-5.28-.02-.83.28-1.21.5-2.86,1.62-.99.67-1.71.87-3.02.82-1.31-.05-1.67-.19-3.16-1.2-1.28-.87-2.36-1.36-3.33-1.5-.18-.03-.35-.08-.39-.13-.04-.04-.43-1.5-.87-3.25-1.71-6.74-1.97-7.71-2.11-7.93-.37-.59-1.17-.86-1.84-.62"/>
      <path d="m29.34,27.56c-.56.17-1.04.64-1.16,1.14-.05.21-.08,2.45-.08,7.38v7.08l-1.84-1.83c-1.01-1.01-1.95-1.89-2.08-1.96-.36-.19-.93-.17-1.35.05-.48.25-.74.63-.78,1.17-.06.78-.13.68,3.46,4.27,1.79,1.79,3.38,3.32,3.52,3.39.32.16.87.17,1.24.02.41-.17,6.65-6.42,6.89-6.89.3-.6.19-1.19-.31-1.69-.49-.49-1.14-.6-1.75-.3-.12.06-1.05.93-2.06,1.94l-1.84,1.83v-7.2s0-7.2,0-7.2l-.16-.35c-.19-.41-.52-.69-.98-.82-.36-.11-.46-.11-.72-.03"/>
    </g>
    <g>
      <path d="m43.93,12.53l1.35-3.66c1.27-3.46,2.45-6.65,3.26-8.87h-1.75c-.8,2.17-2,5.45-3.28,8.94-.48,1.31-.92,2.51-1.32,3.6h1.75Z"/>
      <path d="m49.6,12.53l1.02-5.47c.51-2.74.98-5.28,1.31-7.06h-1.22c-.33,1.75-.83,4.46-1.37,7.35-.39,2.09-.71,3.82-.96,5.18h1.21Z"/>
    </g>
  </g>
</svg>