<?xml version="1.0" encoding="UTF-8"?>
<svg id="_图层_2" data-name="图层 2" xmlns="http://www.w3.org/2000/svg" viewBox="0 0 43.08 44.63">
  <g id="_图层_1-2" data-name="图层 1">
    <path d="m35.48,6.66l2.72-4.71c.5-.87-.12-1.95-1.12-1.95h-11.02c-1,0-1.62,1.08-1.12,1.95l5.51,9.54c.5.87,1.75.87,2.25,0l2.06-3.56c4.24,3.7,6.92,9.13,6.91,15.19-.02,10.99-8.97,19.99-19.95,20.08-11.16.09-20.27-8.97-20.27-20.11C1.43,14.65,6.65,7.42,14.03,4.43c0,0,.43-.17.43-.74s-.43-.8-.43-.8C5.06,6.23-1.08,15.37.16,25.74c1.1,9.21,9.69,17.73,18.91,18.75,13,1.45,24.01-8.69,24.01-21.4,0-6.58-2.95-12.48-7.61-16.43Z"/>
  </g>
</svg>