<?xml version="1.0" encoding="UTF-8"?>
<svg id="_图层_2" data-name="图层 2" xmlns="http://www.w3.org/2000/svg" viewBox="0 0 56.61 66.49">
  <g id="_图层_1-2" data-name="图层 1">
    <g>
      <path d="m54.72,19.5l-3.25,3.5c-.06.07-.13.12-.2.17l-20.28,13.25c-.42.27-.97.23-1.34-.11l-.92-.86c-.44-.41-1.13-.39-1.54.06h0c-.41.44-.39,1.13.06,1.54l2.18,2.02c.37.34.92.39,1.34.11l21.93-14.33c.07-.05.14-.11.2-.17l3.43-3.69c.41-.44.39-1.13-.06-1.54h0c-.44-.41-1.13-.39-1.54.06Z"/>
      <path d="m35.7,1.84l-3.25,3.5c-.06.07-.11.14-.16.22l-11.71,21.2c-.24.44-.15.99.21,1.33l.92.86c.44.41.47,1.1.06,1.54h0c-.41.44-1.1.47-1.54.06l-2.18-2.02c-.37-.34-.46-.89-.21-1.33L30.51,4.26c.04-.08.1-.15.16-.22l3.43-3.69c.41-.44,1.1-.47,1.54-.06h0c.44.41.47,1.1.06,1.54Z"/>
    </g>
    <text transform="translate(0 62.27)" style="font-family: LucidaSans, &apos;Lucida Sans&apos;; font-size: 20px;"><tspan x="0" y="0">Nacl</tspan></text>
  </g>
</svg>