<?xml version="1.0" encoding="UTF-8"?>
<svg id="_图层_2" data-name="图层 2" xmlns="http://www.w3.org/2000/svg" viewBox="0 0 53.65 53.4">
  <g id="_图层_1-2" data-name="图层 1">
    <g>
      <path d="m51.83,18.85l-3.14,3.34c-.06.06-.12.12-.2.16l-19.56,12.62c-.41.26-.94.21-1.29-.12l-.88-.83c-.42-.4-1.09-.38-1.48.05h0c-.4.42-.38,1.09.05,1.48l2.08,1.95c.35.33.88.38,1.29.12l21.16-13.65c.07-.05.14-.1.2-.16l3.32-3.53c.4-.42.38-1.09-.05-1.48h0c-.42-.4-1.09-.38-1.48.05Z"/>
      <path d="m33.65,1.77l-3.14,3.34c-.06.06-.11.13-.15.21l-11.38,20.31c-.24.42-.15.95.2,1.28l.88.83c.42.4.44,1.06.05,1.48h0c-.4.42-1.06.44-1.48.05l-2.08-1.95c-.35-.33-.43-.86-.2-1.28L28.65,4.07c.04-.07.09-.14.15-.21l3.32-3.53c.4-.42,1.06-.44,1.48-.05h0c.42.4.44,1.06.05,1.48Z"/>
      <path d="m18.63,34.76c-3.16,3.39-6.33,6.78-9.49,10.18-1.56,1.67-3.12,3.34-4.68,5.01-.57.62-1.5,1.8-2.44,1.06-1.07-.84-.15-1.9.54-2.6s-.38-1.75-1.06-1.06c-.74.75-1.55,1.7-1.51,2.82.04.96.75,1.91,1.6,2.34,2.32,1.16,4.33-1.93,5.62-3.32,4.16-4.46,8.32-8.92,12.48-13.37.66-.71-.4-1.77-1.06-1.06h0Z"/>
      <path d="m16.59,32.92c-2.14,2.3-4.29,4.58-6.42,6.9-.49.53-1.39,1.68-2.24,1.51-.49-.1-.92-.68-.91-1.16.02-.66.6-1.23,1.03-1.66.68-.68-.38-1.74-1.06-1.06-.62.62-1.22,1.35-1.41,2.22s.12,1.72.73,2.36c1.11,1.18,2.59.89,3.75-.04s2.23-2.27,3.29-3.41l4.29-4.6c.66-.71-.4-1.77-1.06-1.06h0Z"/>
      <path d="m20.74,36.87c-3.43,3.68-6.91,7.31-10.3,11.03-.68.74-1.4,1.51-1.58,2.54s.32,1.99,1.15,2.56c1.49,1.01,3.21-.04,4.24-1.2.64-.72-.42-1.79-1.06-1.06-.41.46-.89.93-1.49,1.11-.65.19-1.35-.27-1.38-.98-.03-.85.94-1.64,1.45-2.2.64-.69,1.29-1.38,1.94-2.06,2.71-2.87,5.39-5.77,8.09-8.66.66-.71-.4-1.77-1.06-1.06h0Z"/>
    </g>
  </g>
</svg>