<?xml version="1.0" encoding="UTF-8"?>
<svg id="_图层_2" data-name="图层 2" xmlns="http://www.w3.org/2000/svg" viewBox="0 0 25.22 35.18">
  <g id="_图层_1-2" data-name="图层 1">
    <path d="m0,21.37l.57-.41c1.21-.88,2.8-.65,3.81.26l.03.03,6.77,8.17V0l.92.43h0s0,0,0,0h.02c.11.06.22.12.33.18.21.11.49.28.77.48.28.2.58.46.83.76.28.33.44.74.46,1.17v26.31l6.31-8.08.03-.03c1.01-.99,2.58-1.13,3.75-.34l.03.02.59.45-11.09,13.26-.02.02c-.7.69-1.83.69-2.54,0l-.02-.02L0,21.37h0Z" style="fill: #050b27;"/>
  </g>
</svg>