<?xml version="1.0" encoding="UTF-8"?>
<svg id="_图层_2" data-name="图层 2" xmlns="http://www.w3.org/2000/svg" viewBox="0 0 30 30">
  <g id="_图层_1-2" data-name="图层 1">
    <path d="m15,0c1.04,0,1.92.37,2.65,1.1.73.73,1.1,1.62,1.1,2.65v.65c.31.1.67.25,1.1.45l.45-.45c.74-.74,1.62-1.1,2.66-1.1s1.91.37,2.65,1.1c.74.74,1.1,1.62,1.1,2.65s-.37,1.92-1.1,2.66l-.45.45c.2.43.34.8.45,1.1h.64c1.03,0,1.92.37,2.65,1.1.73.73,1.1,1.62,1.1,2.65s-.37,1.92-1.1,2.65c-.73.73-1.62,1.1-2.65,1.1h-.64c-.1.31-.25.67-.45,1.1l.45.45c.74.74,1.1,1.62,1.1,2.66s-.37,1.91-1.1,2.65c-.74.74-1.62,1.1-2.65,1.1s-1.92-.37-2.66-1.1l-.45-.45c-.43.2-.8.34-1.1.45v.64c0,1.03-.37,1.92-1.1,2.65s-1.62,1.1-2.65,1.1-1.92-.37-2.65-1.1c-.73-.73-1.1-1.62-1.1-2.65v-.64c-.31-.1-.67-.25-1.1-.45l-.45.45c-.74.74-1.62,1.1-2.65,1.1s-1.92-.37-2.65-1.1c-.73-.74-1.1-1.62-1.1-2.65,0-1.04.36-1.93,1.09-2.66l.45-.45c-.2-.43-.34-.8-.45-1.1h-.64c-1.03,0-1.92-.37-2.65-1.1C.37,16.92,0,16.03,0,15s.37-1.92,1.1-2.65c.73-.73,1.62-1.1,2.65-1.1h.64c.1-.31.25-.67.45-1.1l-.45-.45c-.73-.73-1.09-1.61-1.09-2.66,0-1.03.37-1.91,1.1-2.65.73-.74,1.62-1.1,2.65-1.1s1.91.37,2.65,1.1l.45.45c.43-.19.8-.34,1.1-.45v-.65c0-1.04.37-1.92,1.1-2.65C13.08.37,13.97,0,15,0Zm0,2.5c-.35,0-.64.12-.88.37-.24.24-.37.54-.37.88v2.59c-1.46.21-2.79.76-3.99,1.65l-1.83-1.83c-.25-.25-.54-.37-.88-.37s-.64.12-.88.37c-.24.24-.37.54-.37.88s.12.65.36.89l1.83,1.83c-.89,1.2-1.44,2.54-1.65,3.99h-2.59c-.35,0-.64.12-.88.37-.24.24-.37.54-.37.88,0,.34.12.64.37.88.24.24.54.37.88.37h2.59c.21,1.46.76,2.79,1.65,3.99l-1.83,1.83c-.24.24-.36.54-.36.89s.12.64.37.88c.24.24.54.37.88.37s.63-.12.88-.37l1.83-1.83c1.2.89,2.54,1.44,3.99,1.65v2.59c0,.35.12.64.37.88s.54.37.88.37c.34,0,.64-.12.88-.37.24-.24.37-.54.37-.88v-2.59c1.46-.21,2.79-.76,3.99-1.65l1.83,1.83c.25.25.54.37.89.37s.64-.12.88-.37c.24-.24.37-.54.37-.88s-.12-.64-.37-.89l-1.83-1.83c.89-1.2,1.44-2.54,1.65-3.99h2.59c.35,0,.64-.12.88-.37s.37-.54.37-.88-.12-.64-.37-.88-.54-.37-.88-.37h-2.59c-.21-1.46-.76-2.79-1.65-3.99l1.83-1.83c.25-.25.37-.54.37-.89s-.12-.64-.37-.88c-.24-.24-.54-.37-.88-.37-.35,0-.64.12-.89.37l-1.83,1.83c-1.2-.89-2.54-1.44-3.99-1.65v-2.59c0-.35-.12-.64-.37-.88s-.54-.37-.88-.37Zm0,7.5c1.38,0,2.56.49,3.53,1.47.98.98,1.46,2.15,1.46,3.53s-.49,2.56-1.46,3.53c-.98.98-2.15,1.46-3.53,1.46s-2.56-.49-3.53-1.46c-.98-.98-1.46-2.15-1.47-3.53,0-1.38.49-2.56,1.47-3.53.98-.98,2.16-1.46,3.53-1.47Zm0,2.5c-.69,0-1.28.24-1.77.73-.49.49-.73,1.08-.73,1.77,0,.69.24,1.28.73,1.77.49.49,1.08.73,1.77.73.69,0,1.28-.24,1.77-.73.49-.49.73-1.08.73-1.77s-.24-1.28-.73-1.77-1.08-.73-1.77-.73Z" style="fill: #fff;"/>
  </g>
</svg>