<?xml version="1.0" encoding="UTF-8"?>
<svg id="_图层_2" data-name="图层 2" xmlns="http://www.w3.org/2000/svg" viewBox="0 0 51 50.94">
  <g id="_图层_1-2" data-name="图层 1">
    <g>
      <path d="m24.89,16.81c-.29.12-.49.31-.64.6-.2.39-.22.66-.22,3.46v3.04l-3.14.03c-2.97.03-3.16.04-3.45.26-.73.54-.93,1.28-.56,2,.38.74.45.75,3.97.79l3.18.03v3.04c0,2.78.02,3.07.21,3.45.12.23.31.47.43.54.73.44,1.77.18,2.13-.53.2-.39.22-.66.22-3.46v-3.04l3.18-.03q3.48-.04,3.91-.72c.45-.72.26-1.51-.5-2.07-.29-.22-.47-.23-3.45-.26l-3.14-.03v-3c0-2.8-.02-3.03-.23-3.47-.17-.35-.34-.51-.67-.64-.54-.21-.7-.21-1.24,0" style="stroke: #000;"/>
      <path d="m37.44.7c-.84.39-1.15,1.33-.7,2.08.45.74.47.75,4.14.81,3.3.06,3.32.06,3.95.35.86.4,1.35.8,1.82,1.51.73,1.1.81,1.53.81,4.83s.04,3.45.61,3.89c.41.32,1.27.33,1.77.02.63-.39.66-.6.65-4.09,0-3.57-.06-3.9-.85-5.53-.64-1.32-1.86-2.53-3.18-3.18-1.6-.78-1.87-.83-5.42-.88-2.96-.04-3.18-.03-3.62.18" style="stroke: #000;"/>
      <path d="m6.92.62c-1.59.23-3.26,1.11-4.37,2.31-.79.86-1.6,2.35-1.86,3.42-.21.88-.21,6.77,0,7.27.43,1.02,2.13,1.08,2.7.1.1-.17.15-1.2.19-3.56l.06-3.32.38-.76c.48-.97,1.16-1.65,2.09-2.09l.74-.35,3.32-.06c3.67-.06,3.69-.07,4.14-.81.44-.73.15-1.62-.67-2.04-.47-.24-.59-.25-3.25-.24-1.52,0-3.08.06-3.46.11" style="stroke: #000;"/>
      <path d="m1.42,36.63c-.45.18-.8.74-.88,1.4-.11.88.02,5.96.17,6.62.07.3.36,1.03.64,1.6.71,1.45,1.87,2.64,3.23,3.3,1.64.8,1.95.84,5.58.84,3.14,0,3.21,0,3.61-.25.71-.44.95-1.31.54-1.98-.45-.74-.47-.75-4.15-.81l-3.33-.06-.84-.42c-.98-.49-1.5-1.02-2-2.07l-.35-.72-.06-3.32c-.05-3.02-.07-3.34-.27-3.63-.38-.56-1.23-.79-1.9-.52" style="stroke: #000;"/>
      <path d="m48.15,36.74c-.64.4-.68.66-.68,3.91s-.09,3.81-.82,4.9c-.46.68-.88,1.02-1.78,1.44l-.66.31-3.32.06c-2.22.04-3.39.1-3.54.18-1.04.6-1.09,2-.09,2.66.27.18.63.2,3.02.23,2.86.04,3.92-.05,5.09-.41,1.75-.54,3.46-2.01,4.28-3.66.76-1.53.8-1.81.8-5.61v-3.35l-.37-.4c-.32-.35-.45-.41-.97-.45-.47-.03-.68,0-.96.19" style="stroke: #000;"/>
    </g>
  </g>
</svg>