<?xml version="1.0" encoding="UTF-8"?>
<svg id="_图层_2" data-name="图层 2" xmlns="http://www.w3.org/2000/svg" viewBox="0 0 57.65 54.04">
  <g id="_图层_1-2" data-name="图层 1">
    <g>
      <path d="m26.94,1.5c0,2.48,0,4.95,0,7.43,0,.78.69,1.54,1.5,1.5s1.5-.66,1.5-1.5c0-2.48,0-4.95,0-7.43,0-.78-.69-1.54-1.5-1.5s-1.5.66-1.5,1.5h0Z"/>
      <path d="m48.72,29.4c2.48,0,4.95,0,7.43,0,.78,0,1.54-.69,1.5-1.5s-.66-1.5-1.5-1.5c-2.48,0-4.95,0-7.43,0-.78,0-1.54.69-1.5,1.5s.66,1.5,1.5,1.5h0Z"/>
      <path d="m1.5,29.72c2.48,0,4.95,0,7.43,0,.78,0,1.54-.69,1.5-1.5s-.66-1.5-1.5-1.5c-2.48,0-4.95,0-7.43,0-.78,0-1.54.69-1.5,1.5s.66,1.5,1.5,1.5h0Z"/>
      <path d="m8.46,10.58c1.75,1.75,3.5,3.5,5.25,5.25.56.56,1.57.6,2.12,0s.59-1.53,0-2.12c-1.75-1.75-3.5-3.5-5.25-5.25-.56-.56-1.57-.6-2.12,0s-.59,1.53,0,2.12h0Z"/>
      <path d="m41.27,44.29c1.75,1.75,3.5,3.5,5.25,5.25.56.56,1.57.6,2.12,0s.59-1.53,0-2.12c-1.75-1.75-3.5-3.5-5.25-5.25-.56-.56-1.57-.6-2.12,0s-.59,1.53,0,2.12h0Z"/>
      <path d="m46.93,8.46l-5.25,5.25c-.56.56-.6,1.57,0,2.12s1.53.59,2.12,0c1.75-1.75,3.5-3.5,5.25-5.25.56-.56.6-1.57,0-2.12s-1.53-.59-2.12,0h0Z"/>
      <path d="m13.44,41.54c-1.75,1.75-3.5,3.5-5.25,5.25-.56.56-.6,1.57,0,2.12s1.53.59,2.12,0c1.75-1.75,3.5-3.5,5.25-5.25.56-.56.6-1.57,0-2.12s-1.53-.59-2.12,0h0Z"/>
      <path d="m39.18,18.66c-1.81-1.84-3.74-2.99-6.25-3.75-1.32-.4-1.84-.47-3.56-.52-1.11-.03-2.35,0-2.76.07-4.53.74-8.51,3.63-10.65,7.75-.72,1.39-1.14,2.66-1.44,4.41-.29,1.68-.29,2.87,0,4.44.66,3.57,2.04,6.03,4.84,8.64,2.07,1.93,2.09,1.97,2.09,5.7,0,2.44.03,2.71.3,3.1.17.23.43.46.58.51.15.05.36.3.47.57.56,1.4,1.76,2.64,3.27,3.37.99.48,1.27.55,2.49.59,1.46.05,2.39-.15,3.46-.77,1.19-.68,2.32-1.94,2.8-3.12.12-.3.35-.59.51-.64.15-.05.42-.28.58-.51.28-.39.3-.65.3-2.97,0-3.85-.03-3.76,2.23-5.99,2.34-2.31,3.31-3.75,4.16-6.19,1.74-5.03.39-10.8-3.44-14.68Zm-6.11,31.18c-1.58,2.83-6.26,2.99-8.25.29-.69-.93-.82-.9,4.11-.9h4.49l-.35.62Zm1.79-3.34l-.04,1.16-5.88.04c-4.61.03-5.91,0-6-.15-.07-.1-.12-.64-.12-1.2v-1.01s6.05,0,6.05,0h6.05l-.04,1.16Zm6.38-13.75c-.76,2.39-2.08,4.2-4.93,6.8-.93.84-1.29,1.64-1.38,3.07l-.08,1.23-11.97-.07-.09-1.19c-.11-1.47-.43-2.15-1.5-3.14-2.62-2.44-3.45-3.46-4.32-5.39-.82-1.8-1.07-3.05-1.06-5.35,0-1.81.06-2.26.4-3.4,1.12-3.76,3.56-6.66,6.95-8.26,2.69-1.27,5.21-1.58,8.16-1.01,7.6,1.47,12.19,9.28,9.82,16.72Z" style="stroke: #000;"/>
    </g>
  </g>
</svg>