<?xml version="1.0" encoding="UTF-8"?>
<svg id="_图层_2" data-name="图层 2" xmlns="http://www.w3.org/2000/svg" xmlns:xlink="http://www.w3.org/1999/xlink" viewBox="0 0 50 51.16">
  <defs>
    <clipPath id="clippath">
      <rect x="0" y=".01" width="49.99" height="51.14" style="fill: none;"/>
    </clipPath>
  </defs>
  <g id="_图层_1-2" data-name="图层 1">
    <g>
      <g style="clip-path: url(#clippath);">
        <path d="m13.26,45.53c-3.98-6.8-6.72-14.24-8.1-21.99-1.36-6.64-2.16-13.38-2.39-20.15v-.55h.55c.99.13,1.93.5,2.75,1.08.85.61,1.4,1.55,1.52,2.58.17,1.43,0,2.88-.47,4.23-.51,1.41,0,2.99,1.25,3.83v-.11c1.5-2.57,2.17-5.53,1.93-8.49-.27-1.7-1.2-3.22-2.58-4.23C5.84.53,3.62-.06,1.38.06H0v1.38c.1,7.61.93,15.2,2.48,22.65,1.55,9.12,4.93,17.83,9.95,25.59.1.14.2.27.32.39.09.11.19.2.3.29.6.48,1.35.73,2.12.72h27.99c.9,0,1.76-.36,2.39-1l3.47-3.37c.76-.78,1.1-1.87.93-2.94-.16-.92-.75-1.71-1.59-2.12-4.4-2.17-9.26-3.25-14.16-3.18-4.36.04-8.68.78-12.8,2.16-.03-2.96-.46-5.9-1.29-8.75-1.51-6.17-6.07-11.15-12.09-13.19v.11c-.31,1.48.43,2.98,1.8,3.62,3.92,2.18,6.75,5.9,7.79,10.27.79,2.93,1.13,5.96,1.03,8.98-1.23.54-2.4,1.21-3.49,2-.74.49-1.38,1.11-1.88,1.84h0Zm1.7,2.75l.17-.67c.46-.7,1.04-1.31,1.71-1.8,1.08-.78,2.26-1.43,3.49-1.93,14.04-5.38,23.9-1.31,26.59,0l.57.3-3.9,3.9c-.1.15-.27.24-.44.25h-14.6l-13.59-.04h0Zm25.51-24.25c-.18.58-.41,1.14-.68,1.68-.53,1.04-.39,2.36.51,3.1,3.22-4.16,3.7-9.83,1.24-14.48-.83-1.58-1.97-2.97-3.35-4.11-1.38-1.14-2.97-2-4.68-2.53-3.26-1.01-6.78-.77-9.88.66.55,1.03,1.8,1.44,2.93,1.15,3.6-.91,7.42-.05,10.29,2.31,1.17.96,2.13,2.14,2.84,3.48,1.42,2.69,1.71,5.83.79,8.73h0Zm0,0" style="fill: #050b27;"/>
      </g>
      <path d="m37.76,26.62c-.36-1.33-1.72-2.13-3.05-1.78l-.1.03,2.28,8.49,8.49-2.28-.03-.1c-.37-1.33-1.74-2.11-3.07-1.75l-3.56.95-.95-3.56h0ZM23.33,2.89l-.25-.15-4.4,7.61,7.61,4.39.15-.25c.64-1.1.26-2.51-.84-3.14l-3.37-1.95,1.95-3.37c.64-1.1.26-2.51-.84-3.15h0Zm0,0" style="fill: #050b27;"/>
    </g>
  </g>
</svg>