<?xml version="1.0" encoding="UTF-8"?>
<svg id="_图层_2" data-name="图层 2" xmlns="http://www.w3.org/2000/svg" viewBox="0 0 41.67 42.23">
  <g id="_图层_1-2" data-name="图层 1">
    <g>
      <path d="m19.42,11.73c-3.39,3.1-6.22,9.8-5.81,13.75.24,2.32,1.29,3.95,3.22,4.98.9.48,1.53.74,4,.74,2.99.13,3.38-.07,4.67-.87,1.64-1.02,2.34-3.4,2.41-4.62.37-6.44-3.49-11.48-5.04-13.21-1.86-2.06-2-2.1-3.45-.77m2.24,3.32c1.07,1.35,2.76,4.57,3.35,6.37.65,1.99.65,4.65,0,5.61-.79,1.17-1.88,1.6-4.11,1.62-2.3.02-3.27-.37-4.14-1.67-1.43-2.12-.32-6.83,2.64-11.29.6-.91,1.18-1.65,1.27-1.65s.54.45.98,1.01" style="stroke: #000;"/>
      <path d="m11.83,3.2C6.5,5.8,2.73,10.31,1.12,16.03,0,20.04.42,25.28,2.18,29.17c2.29,5.06,6.96,9.23,12.23,10.94.89.29.99.4.84.99l-.12.46c-.02.09.05.18.15.17l1.72-.17c1.06-.1,2.07-.27,2.25-.37.22-.12-.24-.74-1.38-1.87-1.41-1.39-1.71-1.59-1.71-1.13,0,.89-.36.92-2.21.23-5.76-2.17-10.33-7.37-11.64-13.25-.66-2.95-.42-7.47.53-10.03,1.88-5.07,4.86-8.35,9.85-10.84,1.6-.8,2.16-1.21,2.1-1.53-.14-.73-.77-.64-2.98.43" style="stroke: #000;"/>
      <path d="m24.13.86l-1.82.34c-.15.03-.21.22-.1.33l1.43,1.41,1.45,1.43c.11.1.29.05.32-.09l.1-.39c.16-.64.27-.7,1.02-.55.46.09,1.85.66,3.08,1.28,1.77.88,2.74,1.61,4.64,3.49,2.05,2.03,2.58,2.74,3.62,4.88,1.56,3.2,2.15,6.06,1.93,9.25-.49,6.86-4.57,12.73-10.92,15.7-1.41.66-1.9,1.02-1.84,1.34.15.76.99.67,3.01-.33,4.87-2.41,8.48-6.58,10.26-11.86.92-2.72,1.16-6.97.55-9.79-.86-4.04-2.55-7.18-5.45-10.11-2.2-2.23-5.16-4.12-7.65-4.89-1.42-.44-1.56-.55-1.5-1.16l.04-.41c.01-.13-.1-.23-.23-.21l-1.93.36" style="stroke: #000;"/>
    </g>
  </g>
</svg>