<?xml version="1.0" encoding="UTF-8"?>
<svg id="_图层_2" data-name="图层 2" xmlns="http://www.w3.org/2000/svg" viewBox="0 0 52.69 36.88">
  <g id="_图层_1-2" data-name="图层 1">
    <path d="m7.9,15.81c2.91,0,5.27-2.36,5.27-5.27s-2.36-5.27-5.27-5.27-5.27,2.36-5.27,5.27,2.36,5.27,5.27,5.27Zm36.88,0c2.91,0,5.27-2.36,5.27-5.27s-2.36-5.27-5.27-5.27-5.27,2.36-5.27,5.27,2.36,5.27,5.27,5.27Zm2.63,2.63h-5.27c-1.45,0-2.76.58-3.71,1.53,3.32,1.82,5.67,5.1,6.18,9.01h5.43c1.46,0,2.63-1.18,2.63-2.63v-2.63c0-2.91-2.36-5.27-5.27-5.27Zm-21.08,0c5.1,0,9.22-4.12,9.22-9.22S31.44,0,26.35,0s-9.22,4.12-9.22,9.22,4.12,9.22,9.22,9.22Zm6.32,2.63h-.68c-1.71.82-3.61,1.32-5.64,1.32s-3.92-.49-5.64-1.32h-.68c-5.24,0-9.48,4.25-9.48,9.48v2.37c0,2.18,1.77,3.95,3.95,3.95h23.71c2.18,0,3.95-1.77,3.95-3.95v-2.37c0-5.24-4.25-9.48-9.48-9.48Zm-18.42-1.1c-.96-.95-2.26-1.53-3.71-1.53h-5.27c-2.91,0-5.27,2.36-5.27,5.27v2.63c0,1.46,1.18,2.63,2.63,2.63h5.43c.52-3.9,2.87-7.19,6.19-9.01Z" style="fill: #c8c8c8;"/>
  </g>
</svg>