<?xml version="1.0" encoding="UTF-8"?>
<svg id="_图层_2" data-name="图层 2" xmlns="http://www.w3.org/2000/svg" viewBox="0 0 47.63 55.5">
  <g id="_图层_1-2" data-name="图层 1">
    <g>
      <path d="m30.47,45.67c-2.88,0-4.71-.9-5.73-1.66-.37-.27-.91-.43-1.49-.43-.52,0-1.02.13-1.37.35-.75.47-2.37,1.28-4.82,1.46-.25.02-.51.03-.76.03-2.2,0-3.74-.7-4.64-1.28-.36-.24-.88-.37-1.41-.37-.58,0-1.13.16-1.49.43-.5.37-1.09.67-1.57.88-.03-.31-.06-.64-.09-.93l-.09-.83s.04-.03.06-.05c.45-.35,1.29-1.17,2.03-2.75.32,0,.56.01.76.02.42.01.66.02,1.02.02.15,0,.33,0,.56,0,1.49,3.27,3.97,3.53,4.71,3.53h.13c4.14-.02,5.71-2.65,6.13-3.57h2.22c.41,1.5,1.96,3.87,5.58,3.87,4.11,0,5.42-2.89,5.75-3.9l2.19.03c.41.87,1.17,2.3,1.81,2.83.07.06.16.12.25.17,0,.5-.05,1.16-.13,1.62-.54-.21-1.26-.55-1.84-.94-.36-.24-.88-.38-1.42-.38s-1.06.14-1.43.38c-.83.55-2.58,1.49-4.93,1.49Z" style="fill-rule: evenodd;"/>
      <path d="m16.84,12.87c-.61,0-1.15-.43-1.28-1.03L13.33,1.71c-.15-.7.29-1.4.98-1.56l.17-.04c.1-.02.21-.04.31-.04.62,0,1.16.44,1.28,1.04l1.23,5.83c.4,1.9,2.11,3.29,4.05,3.29h5.38c1.94,0,3.6-1.32,4.04-3.2l1.4-6c.14-.6.67-1.02,1.28-1.02.09,0,.18,0,.27.03.35.07.65.28.84.57.19.3.26.65.18,1l-2.3,10.24c-.14.6-.66,1.03-1.28,1.03h-14.32Z" style="fill-rule: evenodd;"/>
      <path d="m3.65,54.9L.01,19c-.07-.6.17-.85.66-.83h12.34c1.39,0,2.47-.75,3.21-1.46,0,0,0,0,0,0,0,0,.01,0,.02,0l2.58.26s.06.05.09.08l-5.11,19.51c-.11.31-.28.45-.52.4l-1.81-.16c-.29-.03-.5-.12-.4-.43l3.77-14.62c.17-.65-.3-1.31-1.26-1.69-.48-.19-1.06-.28-1.64-.28h-6.11c-.79,0-1.55.19-2.09.53-.54.34-.82.81-.77,1.28l3.16,30.7c.09.9,1.34,1.6,2.85,1.6h29.22c1.5,0,2.75-.7,2.85-1.59l3.45-30.51c.05-.47-.22-.94-.76-1.28-.54-.34-1.3-.54-2.09-.54h-6.28c-.58,0-1.16.08-1.64.27-.96.38-1.44,1.04-1.27,1.69l3.65,14.65s-.05.16-.15.17c-.43.04-1.6.15-2.14.2-.08,0-.15.01-.2.02-.07,0-.13-.09-.13-.09l-.04-.16-4.94-19.63s0-.02.02-.02c0,0,2.65-.25,2.65-.25,0,0,.02,0,.03.01l.02.06c.22.83,1.41,1.44,2.82,1.44l12.84-.03c.49-.04.77.13.73.62l-4.13,35.92c-.03.44-.29.68-.86.65H4.35c-.39-.02-.64-.19-.7-.6Z" style="fill-rule: evenodd;"/>
    </g>
  </g>
</svg>