<?xml version="1.0" encoding="UTF-8"?>
<svg id="_图层_2" data-name="图层 2" xmlns="http://www.w3.org/2000/svg" viewBox="0 0 38.39 58.51">
  <g id="_图层_1-2" data-name="图层 1">
    <g>
      <path d="m20.03,2.63l-.82-1.03-.82,1.03C17.68,3.51,1,24.49,1,37.13c0,11.24,8.16,20.38,18.19,20.38s18.19-9.14,18.19-20.38C37.39,24.49,20.74,3.51,20.03,2.63Zm-.84,53.83c-9.47,0-17.14-8.65-17.14-19.33C2.05,24.72,19.21,3.28,19.21,3.28c0,0,17.12,21.43,17.12,33.84,0,10.67-7.67,19.33-17.14,19.33Z" style="stroke: #000; stroke-width: 2px;"/>
      <g>
        <path d="m18.83,42.23v-11.74h-1.42v11.75c-1.7.34-2.98,1.84-2.98,3.65,0,2.05,1.67,3.72,3.72,3.72s3.72-1.67,3.72-3.72c0-1.82-1.31-3.33-3.03-3.65Z"/>
        <path d="m20.99,40.97v-20.55h0c0-1.57-1.28-2.84-2.84-2.84s-2.84,1.27-2.84,2.84h0v20.55c-1.72.99-2.89,2.84-2.89,4.97,0,3.16,2.57,5.72,5.72,5.72s5.72-2.57,5.72-5.72c0-2.12-1.16-3.98-2.89-4.97Zm-2.84,9.55c-2.53,0-4.58-2.05-4.58-4.58,0,0,0-.02,0-.03,0-.01,0-.03,0-.04,0-1.93,1.2-3.58,2.89-4.25v-21.22h0c.02-.92.77-1.67,1.7-1.67s1.68.75,1.7,1.67h0v21.23c1.42.57,2.48,1.83,2.79,3.36.06.31.1.63.1.95,0,2.53-2.05,4.58-4.58,4.58Z"/>
      </g>
      <g>
        <rect x="23.87" y="28.04" width="5.27" height="1.52"/>
        <rect x="23.87" y="31.66" width="5.27" height="1.52"/>
        <rect x="23.87" y="35.28" width="5.27" height="1.52"/>
        <rect x="23.87" y="38.91" width="5.27" height="1.52"/>
      </g>
    </g>
  </g>
</svg>