<?xml version="1.0" encoding="UTF-8"?>
<svg id="_图层_2" data-name="图层 2" xmlns="http://www.w3.org/2000/svg" viewBox="0 0 18.2 42.2">
  <g id="_图层_1-2" data-name="图层 1">
    <g>
      <path d="m2.73.06C1.99.27.86,1.3.46,2.12c-1.02,2.11-.3,6.39,1.78,10.53.32.63.68,1.3.82,1.49.6.85,2.18,1.2,5.38,1.2,2.14,0,4.45-.21,5.56-.49.98-.25,1.56-1.04,2.51-3.37.58-1.43.87-2.34,1.34-4.12.44-1.69.47-3.6.06-4.73-.34-.96-.89-1.75-1.53-2.21-.5-.36-.55-.37-1.86-.36-1.2,0-1.47.05-2.46.41-.68.25-1.45.43-1.99.47-1.13.09-2.89-.15-4.01-.54C5.19.08,3.3-.1,2.73.06" style="fill: #c8c8c8;"/>
      <path d="m5.47,18.16c-.57.43-.8.68-.76.83.17.74.66,3.4.73,4,.07.57.12.7.29.65.11-.03.7-.15,1.31-.26,3.82-.71,5.89-1.17,5.98-1.31.06-.09.1-.34.1-.55,0-.21.08-.82.19-1.35.27-1.43.28-1.4-.62-2.05l-.8-.58h-5.6l-.81.61" style="fill: #c8c8c8;"/>
      <path d="m11.7,37.15c-.47.1-1.61.32-2.52.49-.91.17-2.06.39-2.54.49-.49.1-.92.17-.95.17-.15,0-.05,1.09.15,1.65.26.72,1.11,1.71,1.73,2.01.7.34,2.74.31,3.4-.05.67-.36,1.25-.96,1.61-1.66.26-.51.3-.75.3-1.94,0-1.01-.04-1.35-.15-1.35-.08,0-.54.09-1.01.19" style="fill: #c8c8c8;"/>
      <path d="m11.88,31.36c-.37.09-1.06.22-1.54.31-1.69.31-4.54.89-4.63.94-.05.03-.1.61-.1,1.28,0,1.44-.17,1.35,1.85.93.77-.16,2.1-.42,2.94-.57.84-.15,1.74-.33,2-.39l.46-.11v-1.29c0-.95-.04-1.28-.15-1.27-.08,0-.46.08-.83.16" style="fill: #c8c8c8;"/>
      <path d="m11.14,25.73c-.78.16-1.66.34-1.97.41-.3.07-1.2.24-2,.39l-1.44.27v1.27c0,.87.04,1.27.14,1.27.08,0,.81-.13,1.63-.3.82-.16,1.88-.37,2.35-.45.47-.09,1.33-.25,1.9-.36l1.04-.21.03-1.31c.03-1.01,0-1.3-.12-1.29-.09,0-.79.14-1.57.3" style="fill: #c8c8c8;"/>
      <path d="m12.25,34.75c-.57.12-1.82.37-2.76.55-4.67.9-5.28,1.04-5.44,1.25-.27.37-.18.75.26.98.24.13.37.11,2.97-.39.81-.16,2.08-.4,2.83-.54,3.19-.6,3.79-.74,4.01-.94.3-.27.3-.6-.01-.91-.29-.29-.46-.29-1.84,0" style="fill: #c8c8c8;"/>
      <path d="m11.45,23.38c-.74.16-2.4.48-3.69.73-3.24.62-3.45.67-3.69.93-.26.28-.16.79.18.98.24.13.23.13,5.66-.91,1.18-.23,2.53-.49,3-.57,1.24-.23,1.69-.68,1.26-1.24-.22-.29-1-.26-2.72.1" style="fill: #c8c8c8;"/>
      <path d="m12.37,28.99c-1.59.32-5.54,1.08-6.45,1.24-1.22.22-1.64.34-1.84.54-.2.2-.24.52-.1.73.32.44.44.44,2.62.01,1.17-.23,2.91-.57,3.86-.74,3.07-.58,3.4-.66,3.64-.87.27-.25.3-.54.08-.81-.25-.32-.58-.33-1.81-.08" style="fill: #c8c8c8;"/>
    </g>
  </g>
</svg>