<?xml version="1.0" encoding="UTF-8"?>
<svg id="_图层_2" data-name="图层 2" xmlns="http://www.w3.org/2000/svg" viewBox="0 0 41.76 36.82">
  <g id="_图层_1-2" data-name="图层 1">
    <g>
      <path d="m27.52,16.78c1.12-1.29,4.33-4.32,7.13-6.74,2.43-2.09,3.18-2.72,5.4-4.49,1.46-1.16,1.93-2.16,1.62-3.41-.38-1.51-1.7-2.36-3.22-2.09-.91.16-1.06.28-4.35,3.4-1.92,1.82-6.58,5.88-7.82,6.81-.45.34-1.1.84-1.45,1.11s-.99.74-1.43,1.04l-.8.55,2.06,2.32c1.13,1.27,2.09,2.31,2.13,2.29.04-.01.37-.37.74-.79m12.36-12.65c-.45-.19-2.37-2.46-2.37-2.81,0-.34.36-.62.77-.59.16,0,.77.59,1.44,1.39l1.17,1.37-.26.36c-.31.42-.37.44-.74.29m-2.72.15c-.62-.7-1.15-1.35-1.17-1.45-.08-.31.36-.8.7-.78.34.02,2.38,2.24,2.5,2.72.09.37-.14.69-.55.74-.28.04-.57-.2-1.48-1.23m-1.51,1.29c-.78-.88-1.13-1.38-1.13-1.62,0-.38.29-.65.67-.63.26.02,2.43,2.39,2.52,2.76.08.33-.17.65-.57.7-.3.04-.56-.17-1.49-1.22" style="fill: #c5c8ce;"/>
      <path d="m21.62,19.97l.63-.57-.99-1.08c-.54-.59-1.04-1.06-1.11-1.04-.15.05-3.13,2.76-3.11,2.83.01.04,3.83.47,3.91.44.02,0,.32-.27.67-.58" style="fill: #c5c8ce;"/>
      <path d="m18.24,22.8l1.21-1.02-1.91-.21-1.91-.21-1.18,1.07-1.18,1.07.49.05c.27.03,1.06.12,1.76.19.7.08,1.33.13,1.39.11s.67-.49,1.33-1.05" style="fill: #c5c8ce;"/>
      <path d="m14.35,26.07l1.18-.98-1-.09c-.55-.05-1.27-.13-1.61-.18-.85-.13-1-.07-2,.87-.49.46-1.01.91-1.14.99-.17.11.21.21,1.29.34.84.1,1.66.15,1.82.11.16-.04.81-.52,1.46-1.06" style="fill: #c5c8ce;"/>
      <path d="m10.31,29.46l1.24-1.03-.77-.08c-.42-.04-1.08-.13-1.45-.18-.38-.06-.8-.08-.93-.04s-.73.52-1.32,1.08l-1.07,1.02.46.05c1.02.12,2.17.23,2.38.23.12,0,.78-.47,1.46-1.04" style="fill: #c5c8ce;"/>
      <path d="m6.38,32.73l1.15-.99-1.3-.16c-.71-.09-1.39-.14-1.5-.12-.21.04-2.2,1.84-2.26,2.04-.04.13,2.23.37,2.55.27.11-.03.71-.5,1.35-1.05" style="fill: #c5c8ce;"/>
      <path d="m24.09,17.94c.27-.24.51-.47.54-.51.03-.04-.42-.62-.99-1.29l-1.03-1.21-.65.6c-.36.33-.64.66-.62.73.09.35,1.86,2.23,2.05,2.17.12-.03.43-.26.7-.5" style="fill: #c5c8ce;"/>
      <path d="m1.77,36.1c1.61-.86,1.66-.88,1.63-.98-.01-.05-.51-.14-1.1-.19l-1.08-.09-.6,1.01c-.7,1.18-.63,1.2,1.16.25" style="fill: #c5c8ce;"/>
      <path d="m.47,36.01l.47-.81-.47.81-.47.81.47-.81" style="fill: #c5c8ce;"/>
    </g>
  </g>
</svg>