<?xml version="1.0" encoding="UTF-8"?>
<svg id="_图层_2" data-name="图层 2" xmlns="http://www.w3.org/2000/svg" viewBox="0 0 30 34.29">
  <g id="_图层_1-2" data-name="图层 1">
    <path d="m21,20.36c-1.92,0-2.85,1.07-6,1.07s-4.07-1.07-6-1.07c-4.97,0-9,4.03-9,9v1.71c0,1.77,1.44,3.21,3.21,3.21h23.57c1.77,0,3.21-1.44,3.21-3.21v-1.71c0-4.97-4.03-9-9-9Zm5.79,10.71H3.21v-1.71c0-3.19,2.6-5.79,5.79-5.79.98,0,2.56,1.07,6,1.07s5.02-1.07,6-1.07c3.19,0,5.79,2.6,5.79,5.79v1.71Zm-11.79-11.79c5.32,0,9.64-4.32,9.64-9.64S20.32,0,15,0,5.36,4.32,5.36,9.64s4.32,9.64,9.64,9.64Zm0-16.07c3.54,0,6.43,2.89,6.43,6.43s-2.89,6.43-6.43,6.43-6.43-2.89-6.43-6.43,2.89-6.43,6.43-6.43Z"/>
  </g>
</svg>