<?xml version="1.0" encoding="UTF-8"?>
<svg id="_图层_2" data-name="图层 2" xmlns="http://www.w3.org/2000/svg" viewBox="0 0 31 31.62">
  <g id="_图层_1-2" data-name="图层 1">
    <path d="m3.6,14.6c.83,4.65,2.47,9.12,4.86,13.2.3-.44.69-.81,1.13-1.1.65-.48,1.36-.88,2.1-1.2.06-1.82-.15-3.63-.62-5.39-.62-2.62-2.32-4.85-4.67-6.16-.82-.39-1.27-1.29-1.08-2.17v-.06c3.61,1.23,6.35,4.21,7.25,7.91.49,1.71.75,3.47.77,5.25,2.48-.83,5.07-1.27,7.69-1.3,2.94-.05,5.86.61,8.5,1.91.5.25.86.72.95,1.27.1.64-.1,1.3-.56,1.77l-2.08,2.02c-.38.38-.9.59-1.44.6H9.6c-.46,0-.91-.14-1.27-.43-.14-.12-.27-.25-.38-.41-3.01-4.66-5.04-9.89-5.97-15.36C1.06,10.45.56,5.9.5,1.33v-.83h.83c1.34-.07,2.68.28,3.81,1,.83.61,1.39,1.52,1.55,2.54.15,1.78-.26,3.55-1.16,5.09v.06c-.75-.5-1.06-1.45-.75-2.3.28-.81.38-1.68.28-2.54-.07-.62-.41-1.18-.91-1.55-.49-.35-1.06-.57-1.65-.65h-.33v.33c.14,4.06.62,8.11,1.44,12.09h0Zm5.98,14.44l-.1.4h0s8.16.03,8.16.03h8.76c.11,0,.2-.06.27-.15l2.34-2.34-.34-.18c-1.61-.79-7.53-3.23-15.95,0-.74.3-1.45.69-2.1,1.16-.4.3-.75.66-1.03,1.08h0Z" style="fill: #050b27; stroke: #000;"/>
  </g>
</svg>