<?xml version="1.0" encoding="UTF-8"?>
<svg id="_图层_2" data-name="图层 2" xmlns="http://www.w3.org/2000/svg" viewBox="0 0 30 38.18">
  <g id="_图层_1-2" data-name="图层 1">
    <path d="m15,0C10.76,0,6.86,1.01,4.13,4.05,1.41,7.08,0,11.88,0,19.09s1.41,12.01,4.13,15.04c2.73,3.04,6.62,4.05,10.87,4.05s8.14-1.01,10.87-4.05c2.72-3.04,4.13-7.84,4.13-15.04s-1.41-12.01-4.13-15.04C23.14,1.01,19.25,0,15,0Zm0,2.73c3.83,0,6.74.84,8.82,3.15,2.08,2.31,3.45,6.36,3.45,13.21s-1.37,10.9-3.45,13.21c-2.08,2.31-4.99,3.15-8.82,3.15s-6.74-.84-8.82-3.15c-2.08-2.31-3.45-6.36-3.45-13.21s1.37-10.9,3.45-13.21c2.08-2.31,4.99-3.15,8.82-3.15Zm-1.36,4.09v8.95l-3.11-3.11-1.96,1.96,4.47,4.47-4.47,4.47,1.96,1.96,3.11-3.11v8.95l2.17-1.62,5.45-4.09,1.28-.98-5.58-5.58,5.58-5.58-1.28-.98-5.45-4.09-2.17-1.62Zm2.73,5.45l2,1.49-2,2v-3.49Zm0,10.14l2,2-2,1.49v-3.49Z"/>
  </g>
</svg>