<?xml version="1.0" encoding="UTF-8"?>
<svg id="_图层_2" data-name="图层 2" xmlns="http://www.w3.org/2000/svg" viewBox="0 0 30 29.06">
  <g id="_图层_1-2" data-name="图层 1">
    <g>
      <path d="m27.36,22.38s-.04-.04-.06-.06l-6.59-6.19s-3.67.97-6.22,5.27c.17.03,6.79,6.79,6.79,6.79,1.2,1.16,3.1,1.16,4.3,0l1.72-1.68c1.16-1.12,1.19-2.97.06-4.13Zm-3.67,4.65c-.3.29-.77.29-1.07,0l-5.52-5.39c-.29-.27-.3-.72-.03-1.01.01-.01.02-.02.03-.03.3-.29.77-.29,1.07,0l5.52,5.39c.28.29.28.75,0,1.04Zm2.47-2.42s-.03.04-.05.05h0c-.3.29-.77.29-1.07,0l-5.54-5.39c-.29-.27-.3-.72-.03-1.01.01-.01.02-.02.03-.03.3-.29.77-.29,1.07,0l5.52,5.39c.29.25.32.7.07.99Z"/>
      <path d="m7.29,9.87l3.44,3.46c.29.29.76.29,1.05,0l1.09-1.07c.29-.29.3-.76,0-1.06l-3.43-3.42c-.29-.29-.29-.76,0-1.06h0c.3-.29.29-.77,0-1.06L4.5.82c-.29-.28-.75-.28-1.04,0L.22,3.98c-.3.29-.3.77,0,1.07l4.95,4.83c.29.28.75.28,1.04,0l.02-.02c.29-.29.76-.28,1.05,0Z"/>
      <path d="m20.94,12.92c.15.04.27.09.4.14.04.02.08.03.13.05,2.34.69,4.87.04,6.59-1.7,1.33-1.34,2.03-3.17,1.94-5.05,0-.07,0-.14-.02-.2h-2.47c-.32,0-.62.13-.85.35l-.84.84-.9.91-.43.43c-.3.3-.74.42-1.16.31l-1.13-.3c-.41-.11-.74-.43-.85-.84l-.31-1.15c-.11-.41,0-.85.31-1.15l.43-.43.9-.91.84-.84c.22-.22.35-.53.35-.85V.02c-.07,0-.17-.02-.23-.02-3.59-.15-6.66,2.56-6.94,6.15-.07.92.05,1.84.34,2.72,0,.02.02.03.02.07.12.37.02.79-.27,1.06-.48.47-14.77,14.14-14.77,14.14-1.19,1.02-1.1,2.92,0,4.05s2.99,1.17,4.02-.02c0,0,13.45-14.34,14.04-14.94.22-.23.54-.35.85-.31h0ZM4.73,26.81c-.35.37-.94.39-1.32.04-.01-.01-.03-.03-.04-.04-.37-.37-.38-.97-.02-1.34,0,0,.01-.01.02-.02.35-.37.94-.39,1.31-.04.01.01.03.03.04.04.35.39.35.97,0,1.36Z"/>
    </g>
  </g>
</svg>