<?xml version="1.0" encoding="UTF-8"?>
<svg id="_图层_2" data-name="图层 2" xmlns="http://www.w3.org/2000/svg" viewBox="0 0 480.95 454.51">
  <g id="_图层_1-2" data-name="图层 1">
    <g>
      <path d="m8.09,293.32c-1.87,1.29-4.35,3.61-5.5,5.16-2.03,2.74-2.09,3.86-2.09,39,0,37.75.28,40.95,4.73,54.17,4.42,13.12,10.66,23.33,20.55,33.64,12.71,13.24,24.66,20.56,42.69,26.15l7.03,2.18,159,.3c108.42.21,161.59-.03,167.14-.76,19.53-2.55,38.7-12.38,52.97-27.16,11.68-12.1,18.66-24.7,23.63-42.69,1.98-7.16,2.13-10.17,2.19-44.85.07-36.04,0-37.26-1.99-39.94-7.05-9.46-19.82-9.72-26.09-.53-2.09,3.06-2.17,4.31-2.61,39.4-.5,39.87-.84,42.43-7.07,54.24-4.16,7.89-16.42,20.17-24.17,24.22-3.3,1.73-9.37,4.07-13.48,5.21-7.41,2.05-8.76,2.07-164.51,2.07s-157.13-.02-164.43-2.05c-4.06-1.13-9.91-3.26-12.98-4.75-7.46-3.61-20.68-16.77-24.8-24.7-6.14-11.83-6.49-14.49-7.17-54.5-.52-30.86-.86-36.84-2.19-38.71-5-7.06-14.59-9.41-20.84-5.13" style="stroke: #000;"/>
      <path d="m234.38,1.54c-1.72.78-4.42,3.11-6,5.19l-2.88,3.78-.5,136.08-.5,136.08-38.26-35.78c-21.05-19.68-39.41-36.22-40.82-36.75-7.14-2.71-15.54-.01-19.49,6.27-2.55,4.05-2.25,12.17.58,15.83,2.93,3.79,97.68,91.94,100.49,93.48,2.91,1.6,15.63,1.92,19.4.48,3.62-1.38,100.23-91.44,102.25-95.31,3.3-6.35,1.31-15.73-4.07-19.26-3.1-2.03-8.57-2.88-13.09-2.03-4.01.75-1.96-1.02-46.05,40.03l-28.95,26.96-.5-132.46c-.49-130.2-.53-132.52-2.5-135.86-1.1-1.87-3.19-4.28-4.64-5.36-3.39-2.53-10.45-3.19-14.49-1.36" style="stroke: #000;"/>
    </g>
  </g>
</svg>