<?xml version="1.0" encoding="UTF-8"?>
<svg id="_图层_2" data-name="图层 2" xmlns="http://www.w3.org/2000/svg" viewBox="0 0 57 51.98">
  <g id="_图层_1-2" data-name="图层 1">
    <g>
      <rect x="28.34" y="22.51" width="6.4" height=".64" rx=".32" ry=".32" transform="translate(28.01 -15.95) rotate(48.9)" style="fill: #c5c8ce;"/>
      <rect x="23.3" y="28.25" width="3.34" height=".61" rx=".31" ry=".31" transform="translate(30.08 -9.04) rotate(48.9)" style="fill: #c5c8ce;"/>
      <path d="m28.33,26c-.08-.05-.15-.11-.21-.18-.36-.42-.32-1.05.1-1.42s1.05-.32,1.42.1.32,1.05-.1,1.42c-.16.14-.36.22-.57.24-.19.12-.21.29-.04.41.31-.01.62-.13.87-.35.59-.51.65-1.4.14-1.99s-1.4-.65-1.99-.14-.65,1.4-.14,1.99c.11.13.24.23.38.3.19.02.32-.22.14-.39Z" style="fill: #c5c8ce;"/>
      <path d="m12.66,37.26l2.96-2.58c.65-.57,1.64-.5,2.21.15s.5,1.64-.15,2.21l-2.96,2.58.37.42,2.96-2.58c.88-.77.98-2.11.2-3h0c-.77-.88-2.11-.98-3-.2l-2.96,2.58.37.42Z" style="fill: #c5c8ce;"/>
      <path d="m15.21,37.19h0c-.48-.55-1.32-.61-1.87-.13l-1.68,1.46-.17.15-.12.11,1.74,2,.12-.11.17-.15,1.68-1.46c.55-.48.61-1.32.13-1.87Zm-3.32,1.6l1.68-1.46c.41-.35,1.03-.31,1.38.09s.31,1.03-.09,1.38l-1.68,1.46-1.29-1.47Z" style="fill: #c5c8ce;"/>
      <path d="m56.87,4.48c-.76-1.83-2-3.25-3.71-4.25-.62-.37-1.41-.28-1.96.19l-24.29,21.18c-.05.04-.1.09-.14.14l-5.4,6s-.05.06-.08.09l-8.74,8.41c-.17.17-.31.37-.4.59h0c-.13.34-.15.7-.07,1.03l.51-.44c0-.13.03-.26.08-.39.06-.15.15-.29.27-.4l8.74-8.41s.08-.07.11-.11l5.4-6s.06-.07.1-.1L51.57.84c.37-.32.89-.37,1.31-.13.8.47,1.5,1.04,2.07,1.7s1.05,1.43,1.4,2.28c.18.44.06.96-.31,1.28l-24.29,21.18s-.07.06-.11.08l-6.67,4.54s-.09.06-.13.09l-9.52,7.52c-.13.1-.27.17-.43.21-.09.02-.19.03-.28.03l-.53.47c.3.1.63.12.95.04h0c.23-.06.45-.17.64-.31l9.52-7.52s.06-.05.1-.07l6.67-4.54c.06-.04.11-.08.16-.12L56.42,6.39c.54-.48.73-1.25.46-1.91Z" style="fill: #c5c8ce;"/>
      <path d="m16.68,35.79l-.6-.69s0,0,0,0c.38-.33.96-.29,1.29.09s.29.96-.09,1.29l-.6-.69Z" style="fill: #c5c8ce;"/>
      <path d="m11.93,51.27s-.03-.03-.04-.04c-.04-.02-.25-.09-.73-.13-2.88-.29-5.43-1.63-7.38-3.87-.1-.12-.21-.24-.31-.37-.68-.84-.95-1.26-1.39-2.14-.89-1.79-1.27-3.51-1.2-5.41.02-.48-.02-.7-.04-.74,0-.01-.02-.03-.03-.04-.07-.09-.21-.14-.35-.13-.14,0-.26.06-.33.14-.15.22-.2,1.82.02,3.07.32,1.9.88,3.24,2.15,5.15.2.3.44.62.73.94.84.96,1.95,1.91,2.97,2.54,1.62.99,3.39,1.59,5.13,1.72.17.01.62.05.72-.01.09-.05.16-.17.18-.3.02-.14,0-.28-.08-.37Z" style="fill: #c5c8ce;"/>
      <path d="m12.24,48.27c-.02-.06-.05-.11-.08-.14-.09-.1-.28-.16-.62-.2-.85-.09-1.55-.27-2.31-.59-.74-.31-1.06-.49-1.9-1.1-.4-.29-.57-.45-1.09-1.04l-.11-.13c-.68-.79-.73-.85-1.1-1.59-.72-1.41-1-2.6-.96-4.12.01-.42-.02-.48-.08-.57-.01-.02-.03-.03-.04-.05-.17-.19-.39-.19-.61,0-.05.04-.08.09-.12.38-.09.76.02,1.9.27,2.83.23.84.71,1.94,1.12,2.57.2.3.52.71.88,1.12s.71.77.98,1.01c.91.8,2.36,1.58,3.52,1.88.84.22,1.75.32,1.93.28.1-.02.2-.12.27-.24.06-.11.08-.23.05-.3Z" style="fill: #c5c8ce;"/>
      <path d="m12.34,44.93c-.12-.14-.12-.14-.39-.17-.86-.1-1.63-.37-2.33-.82-.35-.22-.5-.37-1.03-.98s-.66-.78-.83-1.15c-.35-.76-.51-1.52-.49-2.42,0-.25-.02-.3-.1-.4-.02-.03-.05-.05-.09-.09-.07-.06-.17-.1-.28-.09-.12,0-.24.07-.31.15-.07.1-.15.68-.07,1.34.1.8.43,1.79.83,2.46.04.07.23.3.52.63.08.09.16.18.24.27.6.66.66.72,1.13,1.01.86.53,1.73.84,2.6.92.5.05.56-.02.66-.18.09-.14.11-.28-.07-.49Z" style="fill: #c5c8ce;"/>
      <path d="m12.6,42.27c.08-.1.1-.22.07-.35-.02-.08-.04-.13-.08-.17-.07-.07-.2-.14-.46-.2-.51-.13-.91-.36-1.19-.67s-.43-.71-.46-1.2c-.02-.29-.05-.43-.11-.5-.03-.03-.08-.06-.16-.1-.19-.08-.44-.02-.51.07-.21.27-.1,1.23.32,1.93.07.11.15.23.25.34.52.6,1.37,1.02,2.01,1.01.13,0,.25-.06.33-.16Z" style="fill: #c5c8ce;"/>
    </g>
  </g>
</svg>