<?xml version="1.0" encoding="UTF-8"?>
<svg id="_图层_2" data-name="图层 2" xmlns="http://www.w3.org/2000/svg" viewBox="0 0 237.55 207.88">
  <g id="_图层_1-2" data-name="图层 1">
    <g>
      <path d="m17.32,206.33l-6.29-11.61,4.18-5.07,2.61-.36v-.86h-6.59v.86l2.54.36-7.3,9.3v-1.6c0-2.63,0-5.27.03-7.82l2.28-.23v-.87H0v.86l2.28.2c.08,2.61.08,5.22.08,7.86v1.12c0,2.63,0,5.24-.08,7.8l-2.28.23v.87h8.49v-.87l-2-.23c-.03-2.1-.03-4.13-.03-6.03l1.83-2.21,4.34,8.29-1.77.18v.87h8.24v-.87l-1.77-.18h0Zm45.63-17.89h-6.82v.86l2.89.38.1,9.69c.05,4.59-1.65,6.44-4.59,6.44s-4.49-1.7-4.49-6.34v-2.38c0-2.5,0-5.06.08-7.55l2.43-.23v-.87h-9.03v.86l2.18.2c.08,2.54.08,5.1.08,7.58v2.76c0,5.98,3.04,8.04,7.4,8.04s6.97-2.64,7.05-8.47l.1-9.74,2.61-.38v-.86h0Zm44.83,0h-7v.86l3.38.36.13,12.07-9.62-13.29h-6.11v.86l1.8.2.48.71-.15,15.95-2.33.35v.86h7.05v-.86l-3.4-.38-.15-14.48,11.19,15.77h2.23l.18-17.8,2.33-.33v-.86h0Zm40.65,13.26h-1.37l-1.27,4.69h-5.27c-.05-2.64-.05-5.27-.05-7.78v-1.65c0-2.27,0-4.86.05-7.42l2.48-.23v-.87h-9.18v.86l2.28.2c.08,2.61.08,5.22.08,7.86v1.8c0,2.02,0,4.58-.08,7.12l-2.26.23-.03.87h14.65l-.05-5.68h0Zm44.29-13.26h-6.82v.86l2.89.38.1,9.69c.05,4.59-1.65,6.44-4.59,6.44s-4.49-1.7-4.49-6.34v-2.38c0-2.5,0-5.06.08-7.55l2.43-.23v-.87h-9.03v.86l2.18.2c.08,2.54.08,5.1.08,7.58v2.76c0,5.98,3.04,8.04,7.4,8.04s6.97-2.64,7.05-8.47l.1-9.74,2.61-.38v-.86h0Zm44.83,0h-7v.86l3.38.36.13,12.07-9.62-13.29h-6.11v.86l1.8.2.48.71-.15,15.95-2.33.35v.86h7.05v-.86l-3.4-.38-.15-14.48,11.19,15.77h2.23l.18-17.8,2.33-.33v-.86Z" style="fill: #987b53; fill-rule: evenodd;"/>
      <g>
        <path d="m174.33,27.51v51.32h-5.36V27.51h5.36Zm0,71.45v46.31c0,8.36-6.84,15.2-15.2,15.2h-80.71c-8.36,0-15.2-6.84-15.2-15.2v-58.29c1.44,1.99,3.26,3.68,5.36,4.98v53.3c0,5.41,4.43,9.84,9.84,9.84h80.71c5.41,0,9.84-4.43,9.84-9.84v-46.31h5.36Z" style="fill: #987b53; fill-rule: evenodd;"/>
        <path d="m174.33,13.23v23.41c0,8.36-6.84,15.2-15.2,15.2h-80.71c-8.36,0-15.2-6.84-15.2-15.2V13.23h5.36v23.41c0,5.41,4.43,9.84,9.84,9.84h80.71c5.41,0,9.84-4.43,9.84-9.84V13.23h5.36Z" style="fill: #987b53; fill-rule: evenodd;"/>
        <path d="m174.33,38.61V15.2c0-8.36-6.84-15.2-15.2-15.2h-80.71c-8.36,0-15.2,6.84-15.2,15.2v23.41h5.36V15.2c0-5.41,4.43-9.84,9.84-9.84h80.71c5.41,0,9.84,4.43,9.84,9.84v23.41h5.36Z" style="fill: #987b53; fill-rule: evenodd;"/>
        <path d="m104.32,91.2h-25.9c-8.36,0-15.2-6.84-15.2-15.2V32h5.36v44c0,5.41,4.43,9.84,9.84,9.84h25.9v5.36Z" style="fill: #987b53; fill-rule: evenodd;"/>
        <path d="m159.41,91.2h-30.93c-8.36,0-15.2-6.84-15.2-15.2v-27h5.36v27c0,5.41,4.43,9.84,9.84,9.84h30.93s5.62,0,5.62,0c2.17,0,3.95-1.78,3.95-3.95v-3.07h5.36v3.07c0,5.12-4.19,9.3-9.3,9.3h-5.62Z" style="fill: #987b53; fill-rule: evenodd;"/>
        <path d="m157.02,124.4v5.38c0,8.36-6.84,15.2-15.2,15.2h-58.49c-1.47,0-2.68-1.2-2.68-2.68h0c0-1.47,1.2-2.68,2.68-2.68h58.49c5.41,0,9.84-4.43,9.84-9.84v-5.38h.03c.18-1.3,1.3-2.31,2.65-2.31h0c1.35,0,2.47,1.01,2.65,2.31h.03Z" style="fill: #987b53; fill-rule: evenodd;"/>
        <path d="m172.04,119.81h-40.75c-5.18,0-9.77-2.63-12.52-6.61-2.75,3.98-7.34,6.61-12.52,6.61h-39.25v-5.36h39.25c5.41,0,9.84-4.43,9.84-9.84v-20.43h5.36v20.43c0,5.41,4.43,9.84,9.84,9.84h40.75v5.36Z" style="fill: #987b53; fill-rule: evenodd;"/>
        <path d="m68.5,62.47h37.15c1.47,0,2.68,1.2,2.68,2.68h0c0,1.47-1.2,2.68-2.68,2.68h-37.15c-1.47,0-2.68-1.2-2.68-2.68h0c0-1.47,1.2-2.68,2.68-2.68Z" style="fill: #987b53; fill-rule: evenodd;"/>
        <path d="m89.76,85.84h15.9c1.48,0,2.68,1.2,2.68,2.68h0c0,1.48-1.2,2.68-2.68,2.68h-15.9c-1.48,0-2.68-1.2-2.68-2.68h0c0-1.48,1.2-2.68,2.68-2.68Z" style="fill: #987b53;"/>
        <path d="m117.62,62.47h37.15c1.47,0,2.68,1.2,2.68,2.68h0c0,1.47-1.21,2.68-2.68,2.68h-37.15c-1.47,0-2.68-1.2-2.68-2.68h0c0-1.47,1.2-2.68,2.68-2.68Z" style="fill: #987b53; fill-rule: evenodd;"/>
        <path d="m67.42,32.97c2.74-2.78,7.65-12.03,18.75-10.67,11.09,1.36,13.27,6.86,24.61-6.35,11.34-13.21,23.12,2.38,33.18,9.65,10.06,7.27,11.89.51,16.87-.76,3.33-.85,7.83,4.04,10.2,8.13h-103.6Z" style="fill: #987b53; fill-rule: evenodd;"/>
        <path d="m171.65,94.77h0c1.48,0,2.68,1.2,2.68,2.68v4.5c0,1.48-1.2,2.68-2.68,2.68h0c-1.48,0-2.68-1.2-2.68-2.68v-4.5c0-1.48,1.2-2.68,2.68-2.68Z" style="fill: #987b53;"/>
      </g>
    </g>
  </g>
</svg>